<?xml version="1.0" encoding="UTF-8" standalone="no"?>
<!-- Created with Inkscape (http://www.inkscape.org/) -->

<svg
   version="1.1"
   id="svg1"
   width="410.66666"
   height="524.66669"
   viewBox="0 0 410.66666 524.66669"
   sodipodi:docname="Vladimir-Ilyich-Ulyanov.svg"
   inkscape:version="1.3.2 (091e20ef0f, 2023-11-25)"
   xmlns:inkscape="http://www.inkscape.org/namespaces/inkscape"
   xmlns:sodipodi="http://sodipodi.sourceforge.net/DTD/sodipodi-0.dtd"
   xmlns="http://www.w3.org/2000/svg"
   xmlns:svg="http://www.w3.org/2000/svg">
  <defs
     id="defs1" />
  <sodipodi:namedview
     id="namedview1"
     pagecolor="#ffffff"
     bordercolor="#000000"
     borderopacity="0.25"
     inkscape:showpageshadow="2"
     inkscape:pageopacity="0.0"
     inkscape:pagecheckerboard="0"
     inkscape:deskcolor="#d1d1d1"
     showgrid="false"
     inkscape:zoom="1.3491968"
     inkscape:cx="270.53133"
     inkscape:cy="282.76082"
     inkscape:window-width="1920"
     inkscape:window-height="1011"
     inkscape:window-x="0"
     inkscape:window-y="0"
     inkscape:window-maximized="1"
     inkscape:current-layer="layer1" />
  <g
     inkscape:groupmode="layer"
     id="layer1"
     inkscape:label="Layer 1"
     style="display:inline">
    <path
       style="display:inline;fill:#f4e3d7"
       d="m 159,452.77223 c -1.1,-0.67254 -2.41174,-1.72142 -2.91497,-2.33084 -0.50323,-0.60942 -1.32823,-1.10804 -1.83333,-1.10804 -0.5051,0 -0.91837,-0.39115 -0.91837,-0.86922 0,-0.91823 -4.03321,-5.13078 -4.91234,-5.13078 -1.15512,0 -10.41649,-9.0598 -11.52937,-11.27844 -0.65887,-1.31352 -2.26851,-3.73823 -3.57698,-5.38823 -1.30848,-1.65 -3.08891,-4.05 -3.95652,-5.33333 -0.86762,-1.28333 -2.27813,-2.96824 -3.13447,-3.74423 -0.85634,-0.776 -1.55699,-1.7045 -1.55699,-2.06334 0,-0.35885 -0.61753,-1.21131 -1.37229,-1.89436 -1.84381,-1.66862 -7.74482,-11.51439 -9.92549,-16.56057 -0.96755,-2.23896 -2.78129,-6.02083 -4.03052,-8.40417 -1.24924,-2.38333 -2.79939,-5.78767 -3.44479,-7.56518 -0.6454,-1.77752 -2.8274,-5.89301 -4.84889,-9.14554 -2.666939,-4.29105 -3.854432,-6.97129 -4.327811,-9.76815 -0.358811,-2.11995 -1.112091,-5.95446 -1.673956,-8.52113 -0.561864,-2.56667 -1.353697,-7.21667 -1.75963,-10.33333 -0.405932,-3.11667 -0.893809,-6.71667 -1.08417,-8 -0.190361,-1.28334 -0.594424,-6.81376 -0.897919,-12.28983 -0.303494,-5.47607 -0.753856,-10.72607 -1.000804,-11.66667 -0.246948,-0.94059 -0.399804,-3.88517 -0.33968,-6.5435 l 0.109316,-4.83334 h -4.254051 c -3.663143,0 -4.697807,-0.29393 -7.448732,-2.11607 -5.347181,-3.54182 -5.86095,-4.89194 -5.283354,-13.88393 0.641238,-9.98275 0.688372,-8.18209 -0.776154,-29.65166 -0.460138,-6.74551 -1.38336,-11.8314 -3.451719,-19.01501 -2.139943,-7.43223 -2.336562,-19.59738 -0.363838,-22.51139 0.67838,-1.00207 2.020881,-3.47847 2.983334,-5.50312 0.962453,-2.02465 2.299194,-4.15848 2.970534,-4.74183 2.092231,-1.81802 5.347352,-2.04282 8.236608,-0.56884 2.874654,1.46654 3.586263,1.63298 3.012481,0.70458 -0.210954,-0.34133 -0.11776,-0.78487 0.207097,-0.98564 0.324858,-0.20078 0.398929,-1.49651 0.164602,-2.8794 -0.234328,-1.3829 -0.207008,-11.06436 0.06071,-21.51436 0.493457,-19.26142 1.744381,-31.93509 3.587464,-36.34621 0.539948,-1.29228 0.952288,-3.46804 0.916313,-4.83503 -0.210072,-7.98221 0.62432,-16.37263 2.065291,-20.76799 0.850605,-2.59459 1.809548,-4.71744 2.130982,-4.71744 0.321434,0 0.424171,-0.2593 0.228305,-0.57622 -0.62187,-1.0062 2.794318,-7.21018 5.586491,-10.145366 1.48002,-1.555823 2.69094,-3.214672 2.69094,-3.686331 0,-0.896223 4.00667,-4.258749 5.07458,-4.258749 0.33846,0 1.96014,-1.27809 3.60374,-2.8402 1.64359,-1.562109 3.74648,-3.437109 4.67308,-4.166667 0.9266,-0.729557 2.71689,-2.62023 3.97841,-4.201496 2.35342,-2.949901 3.10637,-3.5655 15.67019,-12.811759 16.73198,-12.313785 22.35372,-15.551224 44,-25.338664 7.71813,-3.489778 19.4398,-6.273098 29.33333,-6.965221 2.93333,-0.205208 6.53333,-0.667246 8,-1.026752 4.25647,-1.043335 19.52947,-1.451401 24.66667,-0.659047 2.56666,0.39588 7.89166,0.74922 11.83333,0.785202 3.94167,0.03598 7.16667,0.251236 7.16667,0.478344 0,0.227108 1.725,0.421456 3.83333,0.431885 2.10833,0.01043 5.03333,0.218234 6.5,0.461791 1.46667,0.243557 3.41667,0.570553 4.33333,0.726657 2.10739,0.358879 9.72478,2.95773 11.96762,4.083035 0.93448,0.468856 2.67181,1.037363 3.86074,1.263349 3.90072,0.74143 17.69808,8.039521 20.73717,10.968889 0.65276,0.629192 3.54876,2.943986 6.43556,5.143986 6.81232,5.191602 9.49871,7.611273 19.61405,17.666667 8.37565,8.326016 10.69601,11.344664 16.91081,22.000001 3.07052,5.264436 9.80738,19.978966 9.80738,21.421106 0,0.34991 1.2,2.48295 2.66667,4.7401 1.46667,2.25715 2.66667,4.49426 2.66667,4.97135 0,0.4771 0.27844,0.86745 0.61876,0.86745 0.34033,0 1.24202,1.725 2.00377,3.83333 0.76174,2.10833 1.6833,4.35426 2.04789,4.99095 0.3646,0.63669 0.66291,1.62225 0.66291,2.19013 0,0.56787 0.43158,1.69694 0.95907,2.50904 0.52749,0.8121 1.61098,4.76894 2.40775,8.79298 1.45665,7.35665 1.5524,14.60851 0.35233,26.68357 -0.21865,2.2 -0.68205,10.6 -1.02979,18.66666 -0.34774,8.06667 -0.76366,15.26784 -0.92426,16.0026 -0.16061,0.73477 -0.6052,2.53477 -0.98798,4 -0.38278,1.46524 -0.76448,4.16407 -0.84823,5.99741 -0.0838,1.83333 -0.35809,3.63333 -0.60964,4 -0.25155,0.36666 -0.76939,1.94166 -1.15076,3.5 l -0.69338,2.83333 h 2.01891 c 1.11041,0 3.94749,0.35535 6.30464,0.78968 3.47886,0.641 4.54174,1.1492 5.64551,2.69931 1.87186,2.62878 2.73058,10.2574 2.34637,20.84434 -0.30091,8.29179 -0.44485,9.01271 -3.32756,16.66667 -4.49463,11.93378 -9.46673,22.60447 -13.66811,29.33334 -3.77531,6.04646 -12.15306,17.28876 -14.03458,18.83333 -0.55832,0.45833 -0.78636,0.83333 -0.50676,0.83333 0.27961,0 0.037,0.47143 -0.53924,1.04762 -0.57619,0.57619 -1.04816,1.40119 -1.04881,1.83334 -6.6e-4,0.43214 -1.37786,1.68571 -3.06044,2.78571 -1.68259,1.1 -3.85705,2.52055 -4.83214,3.15677 -3.30969,2.15949 -10.57778,4.47889 -9.72838,3.10454 0.20213,-0.32706 -0.009,-0.59464 -0.46934,-0.59464 -1.50105,0 -5.97692,-3.53183 -7.01163,-5.53275 -1.30936,-2.53201 -1.92721,-1.87788 -4.06491,4.30353 -0.93122,2.69274 -2.07495,5.49588 -2.54162,6.22922 -0.66501,1.045 -2.03513,5.0785 -2.60425,7.66666 -0.27243,1.23891 -3.34454,10.03414 -4.07508,11.66667 -1.74107,3.89076 -4.99092,13.23374 -5.65693,16.2631 -0.90603,4.12105 -5.28471,15.40357 -5.97805,15.40357 -0.30407,0 -0.76351,0.675 -1.02097,1.5 -0.25746,0.825 -0.75697,1.68581 -1.11003,1.91291 -0.35305,0.2271 -0.68762,1.17332 -0.74348,2.1027 -0.0559,0.92938 -0.32656,1.55086 -0.60156,1.38107 -0.275,-0.16979 -0.5,-0.007 -0.5,0.3627 0,0.55676 -4.14121,5.85199 -7.86142,10.05213 -3.3768,3.81243 -7.42139,9.56423 -7.09584,10.09098 0.21434,0.3468 0.0687,0.54811 -0.32366,0.44736 -0.39235,-0.10075 -2.74161,1.91682 -5.22059,4.48348 -4.93507,5.10965 -10.46069,9.93148 -13.7324,11.98332 -1.15468,0.72416 -2.19966,1.54987 -2.32218,1.83492 -0.26671,0.62056 -7.05114,5.18176 -7.70746,5.18176 -0.25238,0 -1.11535,0.61161 -1.91773,1.35914 -0.80237,0.74752 -2.21482,1.51794 -3.13879,1.71204 -0.92396,0.1941 -3.32993,0.95702 -5.3466,1.69538 -2.01666,0.73836 -5.16666,1.6203 -7,1.95987 -1.83333,0.33957 -3.63333,0.71451 -4,0.83319 -2.82466,0.91429 -6.2206,1.73206 -7.33333,1.76592 -4.00202,0.12179 -8.98986,0.58951 -9.47337,0.88833 -0.30486,0.18842 -3.96298,0.0686 -8.12915,-0.26633 -6.34218,-0.50981 -8.45546,-0.98596 -12.98617,-2.92593 l -5.41131,-2.31704 -5.0757,1.30673 c -2.79164,0.7187 -5.94164,1.75832 -7,2.31027 -1.05837,0.55196 -3.1243,1.01064 -4.59096,1.0193 -1.46667,0.009 -5.36667,0.45937 -8.66667,1.00157 -7.4223,1.21951 -6.93086,1.23198 -9.33333,-0.23689 z"
       id="path6" />
    <path
       style="display:inline;fill:#f4d7d7;stroke-width:0.5"
       d="m 156.30058,337.94205 5.51851,9.59347 15.70448,6.09288 17.63462,0.7213 10.8691,0.10018 10.7403,-4.18182 9.11929,-4.09309 c 0,0 -2.63523,-4.07591 -3.4901,-5.26854 -0.85487,-1.19262 -17.12513,-5.50611 -17.12513,-5.50611 l -11.53411,-4.06732 -16.1634,1.09912 h -11.29845 z"
       id="path5" />
    <path
       style="display:inline;fill:#aa4400;stroke-width:0.5"
       d="m 126.00403,399.12839 c 2.1859,-1.7411 33.24551,-26.65653 33.24551,-26.65653 l 37.47448,5.4355 22.52724,6.37079 11.43274,3.6702 c 0,0 7.12386,13.04934 6.71971,14.15783 -0.40416,1.10849 -1.81361,19.59238 -1.81361,19.59238 0,0 -25.40919,14.36498 -26.84757,14.36498 -1.43837,0 -35.15497,5.83871 -38.52733,4.99445 -3.37236,-0.84427 -16.82116,-2.18024 -18.42214,-5.08122 -1.60097,-2.90098 -8.20498,-9.30722 -8.80535,-12.06827 -0.60036,-2.76106 -16.98368,-24.78011 -16.98368,-24.78011 z"
       id="path4" />
    <path
       style="display:inline;fill:#aa4400;stroke-width:0.5"
       d="m 250.15333,361.00833 c 0,0 -15.59309,-10.46962 -17.16923,-11.84976 -1.57613,-1.38015 -16.65103,-9.96681 -18.05272,-11.28026 -1.4017,-1.31345 -20.24557,-6.81043 -21.75501,-7.04542 -1.50944,-0.23498 -14.90968,0.88145 -16.35037,0.88145 -1.44069,0 -10.13818,-4.49343 -11.94212,-5.24764 -1.80393,-0.7542 -37.15621,20.95976 -37.15621,20.95976 l -0.0729,-16.30009 c 0,0 15.89067,-22.00231 17.67306,-22.52461 1.78239,-0.5223 19.20609,-9.16951 19.20609,-9.16951 0,0 12.21507,-11.16636 15.24421,-11.16636 3.02914,0 11.22074,-1.31344 11.22074,-1.31344 l 9.49377,-2.34471 3.76692,7.23627 4.33746,12.5578 10.86878,10.10431 17.58379,17.65151 c 0,0 4.34361,2.85059 4.86899,4.60014 0.52538,1.74956 4.99213,17.76849 4.99213,17.76849 z"
       id="path3" />
    <path
       id="path2"
       style="display:inline;fill:#f9f9f9;stroke-width:0.5"
       d="m 129.27734,200.42383 c -0.15724,-0.005 -0.27466,6.4e-4 -0.34961,0.0195 -1.19905,0.30227 -11.70235,5.37106 -13.31054,5.97266 0,0 -2.42188,1.87784 -2.42188,2.58984 0,0.71199 0.90818,2.11536 1.79492,2.85156 0.88675,0.73621 9.52003,2.56836 10.80469,2.56836 1.28467,0 9.60715,2.85788 10.89063,3.16016 1.28349,0.30227 11.23202,-0.15235 13.15429,-0.15235 1.92227,0 10.85748,-1.05881 12.82227,-1.85937 1.96478,-0.80055 -1.625,-3.87695 -1.625,-3.87695 l -2.00977,-3.53516 c 0,0 -13.80483,-4.49646 -15.13672,-4.78516 -1.24865,-0.27064 -12.25463,-2.87741 -14.61328,-2.95312 z m 126.77735,11.56445 c -1.77291,0 -10.68946,3.14453 -10.68946,3.14453 0,0 -3.0688,4.70702 -3.81445,5.41016 -0.74565,0.70314 -1.17187,3.76562 -1.17187,3.76562 l 11.54687,7.14258 6.69531,1.13867 14.72852,-1.20312 c 0,0 11.9275,-3.77585 12.71094,-4.07813 0.78343,-0.30227 3.52734,-2.66211 3.52734,-2.66211 0,0 -7.49394,-3.90248 -8.45508,-4.19531 -0.96114,-0.29283 -10.86097,-5.42623 -12.2832,-5.72851 -1.42222,-0.30227 -11.02201,-2.73438 -12.79492,-2.73438 z" />
    <path
       style="display:inline;fill:#000000"
       d="m 159,452.77223 c -1.1,-0.67254 -2.41174,-1.72142 -2.91497,-2.33084 -0.50323,-0.60942 -1.32823,-1.10804 -1.83333,-1.10804 -0.5051,0 -0.91837,-0.39115 -0.91837,-0.86922 0,-0.91823 -4.03321,-5.13078 -4.91234,-5.13078 -1.15512,0 -10.41649,-9.0598 -11.52937,-11.27844 -0.65887,-1.31352 -2.26851,-3.73823 -3.57698,-5.38823 -1.30848,-1.65 -3.08891,-4.05 -3.95652,-5.33333 -0.86762,-1.28333 -2.27813,-2.96824 -3.13447,-3.74423 -0.85634,-0.776 -1.55699,-1.7045 -1.55699,-2.06334 0,-0.35885 -0.61753,-1.21131 -1.37229,-1.89436 -1.84381,-1.66862 -7.74482,-11.51439 -9.92549,-16.56057 -0.96755,-2.23896 -2.78129,-6.02083 -4.03052,-8.40417 -1.24924,-2.38333 -2.79939,-5.78767 -3.44479,-7.56518 -0.6454,-1.77752 -2.8274,-5.89301 -4.84889,-9.14554 -2.666939,-4.29105 -3.854432,-6.97129 -4.327811,-9.76815 -0.358811,-2.11995 -1.112091,-5.95446 -1.673956,-8.52113 -0.561864,-2.56667 -1.353697,-7.21667 -1.75963,-10.33333 -0.405932,-3.11667 -0.893809,-6.71667 -1.08417,-8 -0.190361,-1.28334 -0.594424,-6.81376 -0.897919,-12.28983 -0.303494,-5.47607 -0.753856,-10.72607 -1.000804,-11.66667 -0.246948,-0.94059 -0.399804,-3.88517 -0.33968,-6.5435 l 0.109316,-4.83334 h -4.254051 c -3.663143,0 -4.697807,-0.29393 -7.448732,-2.11607 -5.347181,-3.54182 -5.86095,-4.89194 -5.283354,-13.88393 0.641238,-9.98275 0.688372,-8.18209 -0.776154,-29.65166 -0.460138,-6.74551 -1.38336,-11.8314 -3.451719,-19.01501 -2.139943,-7.43223 -2.336562,-19.59738 -0.363838,-22.51139 0.67838,-1.00207 2.020881,-3.47847 2.983334,-5.50312 0.962453,-2.02465 2.299194,-4.15848 2.970534,-4.74183 2.092231,-1.81802 5.347352,-2.04282 8.236608,-0.56884 2.874654,1.46654 3.586263,1.63298 3.012481,0.70458 -0.210954,-0.34133 -0.11776,-0.78487 0.207097,-0.98564 0.324858,-0.20078 0.398929,-1.49651 0.164602,-2.8794 -0.234328,-1.3829 -0.207008,-11.06436 0.06071,-21.51436 0.493457,-19.26142 1.744381,-31.93509 3.587464,-36.34621 0.539948,-1.29228 0.952288,-3.46804 0.916313,-4.83503 -0.210072,-7.98221 0.62432,-16.37263 2.065291,-20.76799 0.850605,-2.59459 1.809548,-4.71744 2.130982,-4.71744 0.321434,0 0.424171,-0.2593 0.228305,-0.57622 -0.62187,-1.0062 2.794318,-7.21018 5.586491,-10.145366 1.48002,-1.555823 2.69094,-3.214672 2.69094,-3.686331 0,-0.896223 4.00667,-4.258749 5.07458,-4.258749 0.33846,0 1.96014,-1.27809 3.60374,-2.8402 1.64359,-1.562109 3.74648,-3.437109 4.67308,-4.166667 0.9266,-0.729557 2.71689,-2.62023 3.97841,-4.201496 2.35342,-2.949901 3.10637,-3.5655 15.67019,-12.811759 16.73198,-12.313785 22.35372,-15.551224 44,-25.338664 7.71813,-3.489778 19.4398,-6.273098 29.33333,-6.965221 2.93333,-0.205208 6.53333,-0.667246 8,-1.026752 4.25647,-1.043335 19.52947,-1.451401 24.66667,-0.659047 2.56666,0.39588 7.89166,0.74922 11.83333,0.785202 3.94167,0.03598 7.16667,0.251236 7.16667,0.478344 0,0.227108 1.725,0.421456 3.83333,0.431885 2.10833,0.01043 5.03333,0.218234 6.5,0.461791 1.46667,0.243557 3.41667,0.570553 4.33333,0.726657 2.10739,0.358879 9.72478,2.95773 11.96762,4.083035 0.93448,0.468856 2.67181,1.037363 3.86074,1.263349 3.90072,0.74143 17.69808,8.039521 20.73717,10.968889 0.65276,0.629192 3.54876,2.943986 6.43556,5.143986 6.81232,5.191602 9.49871,7.611273 19.61405,17.666667 8.37565,8.326016 10.69601,11.344664 16.91081,22.000001 3.07052,5.264436 9.80738,19.978966 9.80738,21.421106 0,0.34991 1.2,2.48295 2.66667,4.7401 1.46667,2.25715 2.66667,4.49426 2.66667,4.97135 0,0.4771 0.27844,0.86745 0.61876,0.86745 0.34033,0 1.24202,1.725 2.00377,3.83333 0.76174,2.10833 1.6833,4.35426 2.04789,4.99095 0.3646,0.63669 0.66291,1.62225 0.66291,2.19013 0,0.56787 0.43158,1.69694 0.95907,2.50904 0.52749,0.8121 1.61098,4.76894 2.40775,8.79298 1.45665,7.35665 1.5524,14.60851 0.35233,26.68357 -0.21865,2.2 -0.68205,10.6 -1.02979,18.66666 -0.34774,8.06667 -0.76366,15.26784 -0.92426,16.0026 -0.16061,0.73477 -0.6052,2.53477 -0.98798,4 -0.38278,1.46524 -0.76448,4.16407 -0.84823,5.99741 -0.0838,1.83333 -0.35809,3.63333 -0.60964,4 -0.25155,0.36666 -0.76939,1.94166 -1.15076,3.5 l -0.69338,2.83333 h 2.01891 c 1.11041,0 3.94749,0.35535 6.30464,0.78968 3.47886,0.641 4.54174,1.1492 5.64551,2.69931 1.87186,2.62878 2.73058,10.2574 2.34637,20.84434 -0.30091,8.29179 -0.44485,9.01271 -3.32756,16.66667 -4.49463,11.93378 -9.46673,22.60447 -13.66811,29.33334 -3.77531,6.04646 -12.15306,17.28876 -14.03458,18.83333 -0.55832,0.45833 -0.78636,0.83333 -0.50676,0.83333 0.27961,0 0.037,0.47143 -0.53924,1.04762 -0.57619,0.57619 -1.04816,1.40119 -1.04881,1.83334 -6.6e-4,0.43214 -1.37786,1.68571 -3.06044,2.78571 -1.68259,1.1 -3.85705,2.52055 -4.83214,3.15677 -3.30969,2.15949 -10.57778,4.47889 -9.72838,3.10454 0.20213,-0.32706 -0.009,-0.59464 -0.46934,-0.59464 -1.50105,0 -5.97692,-3.53183 -7.01163,-5.53275 -1.30936,-2.53201 -1.92721,-1.87788 -4.06491,4.30353 -0.93122,2.69274 -2.07495,5.49588 -2.54162,6.22922 -0.66501,1.045 -2.03513,5.0785 -2.60425,7.66666 -0.27243,1.23891 -3.34454,10.03414 -4.07508,11.66667 -1.74107,3.89076 -4.99092,13.23374 -5.65693,16.2631 -0.90603,4.12105 -5.28471,15.40357 -5.97805,15.40357 -0.30407,0 -0.76351,0.675 -1.02097,1.5 -0.25746,0.825 -0.75697,1.68581 -1.11003,1.91291 -0.35305,0.2271 -0.68762,1.17332 -0.74348,2.1027 -0.0559,0.92938 -0.32656,1.55086 -0.60156,1.38107 -0.275,-0.16979 -0.5,-0.007 -0.5,0.3627 0,0.55676 -4.14121,5.85199 -7.86142,10.05213 -3.3768,3.81243 -7.42139,9.56423 -7.09584,10.09098 0.21434,0.3468 0.0687,0.54811 -0.32366,0.44736 -0.39235,-0.10075 -2.74161,1.91682 -5.22059,4.48348 -4.93507,5.10965 -10.46069,9.93148 -13.7324,11.98332 -1.15468,0.72416 -2.19966,1.54987 -2.32218,1.83492 -0.26671,0.62056 -7.05114,5.18176 -7.70746,5.18176 -0.25238,0 -1.11535,0.61161 -1.91773,1.35914 -0.80237,0.74752 -2.21482,1.51794 -3.13879,1.71204 -0.92396,0.1941 -3.32993,0.95702 -5.3466,1.69538 -2.01666,0.73836 -5.16666,1.6203 -7,1.95987 -1.83333,0.33957 -3.63333,0.71451 -4,0.83319 -2.82466,0.91429 -6.2206,1.73206 -7.33333,1.76592 -4.00202,0.12179 -8.98986,0.58951 -9.47337,0.88833 -0.30486,0.18842 -3.96298,0.0686 -8.12915,-0.26633 -6.34218,-0.50981 -8.45546,-0.98596 -12.98617,-2.92593 l -5.41131,-2.31704 -5.0757,1.30673 c -2.79164,0.7187 -5.94164,1.75832 -7,2.31027 -1.05837,0.55196 -3.1243,1.01064 -4.59096,1.0193 -1.46667,0.009 -5.36667,0.45937 -8.66667,1.00157 -7.4223,1.21951 -6.93086,1.23198 -9.33333,-0.23689 z m 77.8486,-6.83403 c 3.38327,-0.73562 7.72639,-1.66406 9.65139,-2.0632 1.925,-0.39915 3.5,-0.9491 3.5,-1.22212 0,-0.27302 1.67202,-1.31444 3.71559,-2.31426 2.04358,-0.99983 3.87568,-2.23504 4.07133,-2.74491 0.19565,-0.50986 0.79134,-0.92703 1.32375,-0.92703 0.56195,0 0.76848,-0.32286 0.49234,-0.76967 -0.30495,-0.49342 -0.18172,-0.58799 0.34334,-0.26349 0.46796,0.28922 1.44082,-0.029 2.26967,-0.74231 0.79786,-0.68667 2.50065,-1.96649 3.78398,-2.84404 1.28334,-0.87755 2.78334,-1.9971 3.33334,-2.48789 0.55,-0.49079 2.8,-2.36218 5,-4.15864 5.5875,-4.56261 9.66666,-8.41883 9.66666,-9.13836 0,-0.33507 0.77015,-1.43979 1.71144,-2.45493 7.28413,-7.85561 10.2116,-12.29642 17.01267,-25.80733 1.56886,-3.11667 3.56388,-6.44994 4.43339,-7.40727 1.56263,-1.72045 2.41764,-4.1749 4.85117,-13.92607 1.69059,-6.77419 2.23167,-8.59445 4.8552,-16.33333 1.24302,-3.66667 3.4207,-10.26667 4.8393,-14.66667 2.31953,-7.19435 5.80841,-14.20743 7.62713,-15.33146 0.37352,-0.23084 0.88182,0.1243 1.12957,0.7892 0.79036,2.12119 4.37318,6.18479 5.07215,5.7528 0.37559,-0.23213 0.47005,-0.0866 0.21334,0.3288 -0.61517,0.99537 1.91847,3.46066 3.55661,3.46066 1.57038,0 4.69803,-1.3546 4.69803,-2.03474 0,-0.26806 0.77493,-0.68188 1.72206,-0.91959 0.94713,-0.23772 2.89117,-1.17024 4.32008,-2.07227 1.42892,-0.90204 2.83104,-1.64007 3.11584,-1.64007 0.28479,0 2.75737,-3.375 5.49461,-7.5 2.73725,-4.125 7.1296,-10.5 9.76079,-14.16666 2.63118,-3.66667 5.75473,-8.84167 6.94122,-11.50001 1.18649,-2.65833 2.40123,-4.83333 2.69944,-4.83333 0.2982,0 1.73987,-3.68141 3.20372,-8.18091 2.83078,-8.70111 4.07557,-17.12551 4.07557,-27.58221 0,-5.58147 -0.018,-5.64085 -2.5,-8.26804 -3.65278,-3.86638 -7.34681,-4.42176 -14.36151,-2.15917 -5.62361,1.81389 -7.49369,3.25457 -8.15949,6.28596 -0.44368,2.02009 -2.48506,3.5699 -3.95779,3.00476 -0.48104,-0.1846 -1.31644,-1.22128 -1.85645,-2.30376 -0.86181,-1.72754 -0.86299,-2.28364 -0.01,-4.54905 1.50976,-4.00822 2.43821,-10.78833 1.70296,-12.43608 -0.41528,-0.93067 -0.39024,-2.07729 0.0721,-3.30216 0.62368,-1.65231 0.96876,-1.83504 2.88908,-1.52985 l 2.1808,0.34658 v -3.50077 c 0,-1.92542 -0.2763,-4.46419 -0.61401,-5.6417 -0.41605,-1.45071 -0.36232,-2.68346 0.16667,-3.82373 0.95837,-2.06582 1.46288,-2.14539 1.60541,-0.25319 0.0597,0.79201 0.46194,1.65847 0.89395,1.92546 0.43201,0.267 0.59214,0.79827 0.35585,1.18059 -0.23629,0.38233 -0.14632,0.87022 0.19993,1.08422 0.75298,0.46536 1.43422,-1.46598 1.70636,-4.83759 0.10918,-1.35265 0.37816,-3.50936 0.59773,-4.7927 0.21957,-1.28333 0.54659,-6.08333 0.72672,-10.66666 0.18013,-4.58334 0.37065,-8.48334 0.4234,-8.66667 0.0527,-0.18333 0.0596,-0.56046 0.0154,-0.83806 -0.0443,-0.2776 -0.25455,-2.3776 -0.46725,-4.66667 -0.21269,-2.28906 -0.80567,-5.42884 -1.31773,-6.97728 -1.10459,-3.34019 -0.67525,-5.06269 1.11989,-4.49293 1.46799,0.46592 1.50608,0.18941 0.4627,-3.35839 -0.43134,-1.46667 -0.71843,-2.92538 -0.63798,-3.24158 0.0804,-0.3162 -0.37864,-0.95874 -1.0202,-1.42786 -0.9837,-0.71929 -1.028,-1.0198 -0.28277,-1.91775 0.48604,-0.58564 1.1173,-0.92043 1.40281,-0.74398 0.28551,0.17646 0.26893,-0.80185 -0.0368,-2.174 -2.44932,-10.99183 -3.22164,-16.3956 -2.52842,-17.6909 0.44905,-0.83906 0.43885,-2.2683 -0.0311,-4.35946 -0.38457,-1.71113 -0.82565,-4.01114 -0.98017,-5.11114 -0.69137,-4.92172 -1.25884,-7.47397 -2.07517,-9.33334 -1.25937,-2.86845 -2.05552,-4.89698 -3.34961,-8.53455 -0.62637,-1.76067 -2.12362,-4.66457 -3.32722,-6.45312 -1.20361,-1.78855 -2.59609,-4.173 -3.09441,-5.29878 -0.49832,-1.125786 -1.1328,-2.04688 -1.40996,-2.04688 -0.27716,0 -0.50393,-0.397705 -0.50393,-0.88379 0,-0.486085 -0.70693,-1.547918 -1.57095,-2.35963 -0.86403,-0.811711 -2.3998,-3.114005 -3.41282,-5.116209 -1.01302,-2.002204 -2.05794,-3.640371 -2.32203,-3.640371 -0.2641,0 -0.78848,-0.675 -1.1653,-1.5 -1.03251,-2.260575 -3.83909,-5.477093 -11.19775,-12.833334 -8.24292,-8.240203 -11.61183,-11.177075 -15.01605,-13.090357 -1.45664,-0.818674 -2.65214,-1.808256 -2.65668,-2.199071 -0.007,-0.616627 -2.21006,-2.372778 -5.92173,-4.720805 -0.58851,-0.372295 -2.27002,-1.477669 -3.73668,-2.456387 -3.2788,-2.187967 -8.22946,-4.192817 -8.84169,-3.580585 -0.24917,0.249169 -0.0766,0.685708 0.38357,0.970086 0.73091,0.451727 0.4725,2.743785 -0.30934,2.743785 -0.16031,0 -2.26309,-1.35 -4.67285,-3 -2.40976,-1.65 -4.6786,-3 -5.04186,-3 -0.36327,0 -0.4878,-0.45 -0.27675,-1 0.46074,-1.20067 -0.33059,-1.310494 -1.44108,-0.2 -0.62223,0.622222 -0.8,0.597531 -0.8,-0.111111 0,-0.501112 -0.18804,-0.723076 -0.41786,-0.493255 -0.22982,0.22982 -1.26492,-0.02018 -2.30023,-0.555556 -2.22744,-1.151858 -3.28191,-1.237773 -3.28191,-0.2674 0,0.388306 0.34635,0.491953 0.76967,0.230327 0.45937,-0.28391 0.58938,-0.183962 0.32246,0.247914 -0.24596,0.397978 0.31067,1.541352 1.23695,2.54083 0.92629,0.999478 1.51487,1.986524 1.30795,2.193435 -0.20691,0.206911 -0.65529,-0.06511 -0.99641,-0.604491 -0.34111,-0.539381 -0.6248,-0.747989 -0.63042,-0.463573 -0.0151,0.767425 -4.0102,-1.439406 -4.0102,-2.2152 0,-0.365111 -0.825,-1.021781 -1.83334,-1.459265 -1.00833,-0.437485 -2.95237,-1.481053 -4.32008,-2.319041 -1.36772,-0.837988 -3.11821,-1.523615 -3.88999,-1.523615 -1.23691,0 -1.08043,0.366732 1.32008,3.093861 3.97483,4.515648 3.60753,5.857581 -0.61001,2.228665 -2.60074,-2.237769 -10,-6.307202 -10,-5.499786 0,0.284807 1.22396,1.817245 2.71991,3.405418 3.22156,3.420167 2.99085,4.493359 -0.33769,1.570858 -3.99327,-3.506134 -8.01313,-5.491346 -11.81391,-5.834306 -2.54644,-0.229775 -3.18648,-0.141058 -2.23497,0.309797 0.73333,0.347479 1.08083,0.652865 0.77222,0.678637 -0.30861,0.02577 1.12139,1.417413 3.17778,3.092537 3.55786,2.898214 4.19177,4.287653 1.95618,4.287653 -0.55831,0 -2.26561,-1.013826 -3.79398,-2.252946 -4.57368,-3.708078 -10.44554,-6.234675 -10.44554,-4.494601 0,0.658458 4.03188,2.49392 4.88289,2.222876 0.30225,-0.09627 0.38763,0.08697 0.18972,0.407191 -0.19791,0.320222 0.22094,1.205606 0.93077,1.967521 2.03172,2.180795 0.10799,2.203312 -3.41044,0.03992 -1.69055,-1.039478 -3.35555,-1.889959 -3.7,-1.889959 -0.34445,0 -0.9874,-0.361132 -1.42879,-0.802516 -1.60787,-1.607876 -10.70311,-3.329498 -9.79076,-1.853276 0.23031,0.372647 0.67958,0.516338 0.99837,0.319312 0.3188,-0.197027 0.82307,0.05744 1.1206,0.565472 0.29754,0.508036 1.59098,1.450522 2.87431,2.094414 2.99804,1.504219 4.66667,2.979506 4.66667,4.125954 0,1.101618 -3.09967,0.528713 -4.71916,-0.872233 -0.57887,-0.500753 -1.30525,-0.91046 -1.61418,-0.91046 -0.30892,0 -1.0353,-0.426774 -1.61417,-0.948387 -1.96002,-1.766149 -6.61687,-2.868231 -12.51323,-2.96136 -4.36196,-0.06889 -5.57317,0.0872 -4.7086,0.606796 0.6402,0.384752 2.15415,0.788398 3.36434,0.896991 2.18217,0.19581 4.944,1.645597 7.43071,3.900647 1.50483,1.36465 1.45062,1.375046 -2.75956,0.529149 -5.70869,-1.146973 -7.75869,-1.400461 -14.60919,-1.806467 C 192.8113,43.815603 188,44.255431 188,45.276903 c 0,0.546981 3.94989,1.777012 7.55779,2.353559 2.19107,0.350138 3.77554,1.494194 3.77554,2.726116 0,0.924601 -3.55559,0.915045 -14.88469,-0.04001 -5.84677,-0.492886 -6.33949,-0.422571 -14.11531,2.014364 -1.46667,0.459653 -2.59527,1.162435 -2.508,1.56174 0.0918,0.420132 -0.32949,0.55434 -1,0.318547 -0.83791,-0.294662 -0.9673,-0.198153 -0.46738,0.348617 0.47214,0.516378 2.05729,0.600209 5,0.264427 C 178.00166,54.066178 186,55.786149 186,57.97291 c 0,0.261973 -3.225,0.521693 -7.16667,0.577155 -3.94167,0.05546 -8.21469,0.404386 -9.4956,0.775388 -1.28091,0.371002 -3.30511,0.674549 -4.49822,0.674549 -1.19311,0 -4.04509,0.869223 -6.33774,1.931606 -2.29264,1.062384 -5.33123,2.336314 -6.75241,2.830955 -1.42118,0.494642 -2.72761,1.273697 -2.90319,1.731232 -0.17557,0.457536 -0.56706,0.678712 -0.86996,0.491504 -0.30291,-0.187208 -0.75984,-0.0021 -1.0154,0.411446 -0.44059,0.712885 4.12577,0.404984 8.03919,-0.542067 0.73333,-0.177467 3.13333,-0.572847 5.33333,-0.878621 2.2,-0.305775 5.26021,-0.840264 6.80047,-1.187755 1.54026,-0.347491 2.96526,-0.467014 3.16667,-0.265606 1.03406,1.034067 0.045,1.968318 -2.80047,2.645134 -20.94418,4.981809 -29.21649,7.626481 -31.52325,10.078033 -0.56278,0.59811 -1.46213,1.187255 -1.99854,1.309211 -0.90675,0.206151 -2.75941,1.632683 -8.64488,6.656483 -3.2661,2.787924 -2.00963,3.408156 1.93578,0.955555 1.80579,-1.122539 3.98397,-2.250596 4.8404,-2.506794 0.85643,-0.256198 2.1994,-0.870031 2.98436,-1.364072 0.78497,-0.494042 3.40793,-1.538163 5.82882,-2.32027 2.42088,-0.782107 4.57134,-1.696653 4.7788,-2.032326 0.20746,-0.335672 1.19949,-0.610314 2.20452,-0.610314 1.00502,0 2.11232,-0.269124 2.46065,-0.598053 0.34834,-0.32893 1.98334,-0.814108 3.63334,-1.078175 2.53799,-0.406182 1.61399,0.209868 -6,4.000307 -12.83147,6.387829 -13.692,6.88904 -13.44445,7.830653 0.12222,0.464898 0.009,0.632233 -0.25119,0.371857 -0.97575,-0.97575 -8.86193,4.276072 -8.45451,5.6303 0.10075,0.334887 -0.1263,0.417616 -0.50455,0.183842 -0.58353,-0.36064 -3.18998,1.099301 -5.67864,3.180749 -1.21468,1.015934 -5.32366,3.414594 -5.90451,3.446824 -0.31415,0.0174 -1.06415,0.96888 -1.66667,2.11433 -0.60251,1.14545 -1.64221,3.04756 -2.31042,4.22691 l -1.21495,2.14428 1.54828,-0.4809 c 0.85155,-0.26451 1.79541,-0.90453 2.09746,-1.42228 0.60241,-1.0326 13.41347,-9.550643 14.36408,-9.550643 0.32458,0 0.93543,-0.416043 1.35744,-0.924541 1.21973,-1.469683 10.01871,-5.523854 14.39596,-6.633008 C 148.5766,88.193803 152,88.124442 152,89.579933 c 0,0.588643 -1.48105,1.203786 -4.16667,1.730599 -4.82903,0.947265 -11.31551,3.909287 -10.70921,4.890311 0.22837,0.369511 0.0961,0.47459 -0.29401,0.233509 -0.39008,-0.241081 -3.06143,0.802229 -5.93634,2.318467 -6.23159,3.286571 -8.60629,4.868991 -11.06624,7.374211 -1.01152,1.03014 -2.00958,1.87297 -2.2179,1.87297 -0.88335,0 -7.53286,5.18788 -7.14573,5.57502 0.23374,0.23374 0.0757,0.42498 -0.35125,0.42498 -0.8477,0 -5.21464,3.92485 -5.56319,5 -0.11887,0.36667 0.0839,0.74167 0.45054,0.83334 0.36666,0.0917 0.66666,-0.17974 0.66666,-0.60312 0,-0.42338 0.55132,-0.85069 1.22514,-0.94959 0.67383,-0.0989 1.74745,-0.65249 2.38583,-1.23022 C 109.91601,116.47269 110.7897,116 111.21916,116 111.64862,116 112,115.76469 112,115.47708 c 0,-0.28761 0.88908,-1.04813 1.97574,-1.69003 1.08666,-0.64191 2.40236,-1.59372 2.92378,-2.11514 0.52142,-0.52142 2.85734,-1.87871 5.19093,-3.0162 2.33358,-1.13748 4.69288,-2.35445 5.24288,-2.70437 0.55,-0.34992 2.95,-1.574 5.33333,-2.72018 2.38334,-1.14618 4.43334,-2.34209 4.55556,-2.65756 0.12222,-0.31548 0.80286,-0.5736 1.51252,-0.5736 0.70966,0 3.43696,-0.749996 6.06066,-1.666663 4.98159,-1.740462 7.87126,-2.11619 7.87126,-1.023456 0,0.353766 -0.6,0.964321 -1.33333,1.356789 C 150.6,99.059139 150,99.233001 150,99.053032 c 0,-0.790416 -5.5584,1.753758 -11.03864,5.052578 -7.07803,4.2606 -10.05409,5.89772 -14.93871,8.21767 -2.0042,0.9519 -3.8042,1.97828 -4,2.28084 -0.19579,0.30256 -1.55599,1.16604 -3.02265,1.91886 -1.46667,0.75281 -3.22631,2.03699 -3.9103,2.85373 l -1.24364,1.48499 2.9103,-0.46529 c 1.60067,-0.25591 4.2603,-1.25639 5.9103,-2.22329 1.65,-0.9669 3,-1.67845 3,-1.58121 0,0.0972 2.88967,-1.31227 6.42148,-3.13222 C 136.8819,109.95883 143.26382,108 147.87592,108 c 2.58489,0 3.87031,1.06189 1.95741,1.61702 -6.76773,1.96401 -12.16858,4.17371 -22.30049,9.12402 -11.13072,5.43831 -16.32014,8.69389 -15.37103,9.643 0.20393,0.20393 1.04507,-0.32405 1.8692,-1.17329 0.82412,-0.84924 1.28659,-1.16908 1.02769,-0.71075 -0.67428,1.19369 -0.30037,1.08848 5.09334,-1.43312 8.78866,-4.10877 21.47477,-7.04906 24.73758,-5.73349 0.79404,0.32015 1.21871,0.60112 0.94371,0.62436 -5.27576,0.44588 -21.2936,6.82747 -21.24458,8.46395 0.01,0.31807 -0.5711,0.4841 -1.29027,0.36896 -0.72138,-0.11549 -1.48629,0.25638 -1.70622,0.82951 -0.21925,0.57136 -0.66721,0.87286 -0.99545,0.66999 C 120.26856,130.0873 120,130.2188 120,130.5824 c 0,0.3636 -0.64887,0.86703 -1.44193,1.11874 -1.35412,0.42978 -1.36788,0.49909 -0.22588,1.13818 0.84648,0.47372 1.58584,0.4496 2.43288,-0.0794 0.66926,-0.41796 1.7105,-0.75992 2.31386,-0.75992 0.60336,0 2.05479,-0.59194 3.22541,-1.31542 1.17061,-0.72348 4.05602,-1.94069 6.41202,-2.70491 4.97431,-1.61353 16.91521,-3.28616 18.12407,-2.53874 1.35561,0.83815 -0.73381,2.21755 -4.84043,3.19559 -2.01667,0.48028 -4.56667,1.3403 -5.66667,1.91115 -1.1,0.57084 -3.83068,1.68668 -6.06818,2.47963 -5.90865,2.09397 -10.93182,4.45418 -10.93182,5.13646 0,0.32601 -0.60092,0.40203 -1.33538,0.16892 -1.48567,-0.47153 -3.67964,1.23099 -3.00111,2.32887 0.22835,0.36948 0.0975,0.67178 -0.29083,0.67178 -0.38831,0 -0.70601,-0.29059 -0.70601,-0.64574 0,-0.35516 -0.525,-0.45938 -1.16667,-0.23159 -2.0787,0.73793 -10.26523,6.35847 -10.62432,7.29424 -0.1918,0.49982 -0.60224,0.75208 -0.91209,0.56059 -0.30985,-0.1915 -0.88897,0.26022 -1.28693,1.00383 -0.97015,1.81275 0.0172,1.76048 3.17097,-0.16788 1.36714,-0.83593 3.0857,-1.85801 3.81904,-2.27129 0.73333,-0.41328 1.2509,-1.10163 1.15015,-1.52968 -0.10076,-0.42804 0.11309,-0.59515 0.4752,-0.37135 0.36211,0.2238 1.79454,-0.30082 3.18318,-1.16582 1.38864,-0.865 3.05701,-1.76915 3.70748,-2.00924 0.65048,-0.24008 1.42607,-1.09446 1.72355,-1.89861 0.31607,-0.85441 0.72356,-1.16648 0.98043,-0.75085 0.48883,0.79094 2.64979,0.35245 8.27353,-1.67882 1.92144,-0.69402 3.32648,-1.4289 3.12231,-1.63306 -0.20416,-0.20417 -0.005,-0.59761 0.44282,-0.87431 0.52437,-0.32408 0.64228,-0.22521 0.33138,0.27784 -0.36091,0.58396 0.49592,0.65198 3.39699,0.26967 3.6289,-0.47822 7.90299,-0.5627 14.76186,-0.29178 2.35448,0.093 2.8409,0.32747 2.65659,1.28052 -0.18796,0.97191 -1.00297,1.17547 -4.88222,1.21941 -2.56112,0.029 -5.70659,0.26411 -6.98992,0.52244 -3.87648,0.78032 -12.79131,2.42481 -13.14497,2.42481 -0.18206,0 -0.17564,0.40491 0.0143,0.89979 0.24007,0.62562 -0.19526,0.87745 -1.42868,0.82646 -2.54746,-0.10532 -11.90907,4.34345 -11.63008,5.52678 0.0791,0.33562 -0.38808,0.47112 -1.03825,0.30109 -1.1847,-0.3098 -4.74512,2.02333 -4.09105,2.68085 0.19135,0.19236 1.24135,-0.0559 2.33334,-0.55174 10.11592,-4.59314 20.36615,-6.74873 35.31905,-7.42749 7.87328,-0.3574 8.9997,-0.27873 8.9997,0.62852 0,1.54419 -0.89602,1.85753 -6.18603,2.16326 -2.64768,0.15301 -6.46397,0.45668 -8.48063,0.6748 -2.01667,0.21812 -4.04167,0.41983 -4.5,0.44825 -0.45834,0.0284 -0.83411,0.22665 -0.83505,0.44054 -9.4e-4,0.21389 -1.87594,0.47286 -4.16666,0.57549 -5.11426,0.22913 -11.27987,1.7281 -14.83163,3.60582 -4.56392,2.41284 -5.22969,2.80747 -9.069,5.37552 -2.05462,1.3743 -3.92619,2.49873 -4.15905,2.49873 -0.93177,0 -3.01113,2.27966 -2.63479,2.88859 0.2212,0.35792 0.0773,0.44999 -0.31968,0.20461 -0.39703,-0.24537 -1.86839,0.60684 -3.26968,1.89381 -1.486938,1.36564 -2.131414,2.33245 -1.547796,2.32194 1.354276,-0.0244 3.426936,-1.65979 2.843296,-2.24344 -0.25813,-0.25812 0.0465,-0.27136 0.67702,-0.0294 0.68011,0.26098 1.14635,0.12373 1.14635,-0.33744 0,-0.42754 0.3083,-0.5868 0.68512,-0.35391 0.37682,0.23288 1.54718,-0.49941 2.60081,-1.62732 1.05362,-1.12792 2.17032,-2.05112 2.48154,-2.05157 0.31123,-4.5e-4 1.43753,-0.75045 2.50289,-1.66666 1.06536,-0.91622 2.35807,-1.66586 2.87268,-1.66586 0.51461,0 0.76993,-0.26814 0.56738,-0.59586 -0.20254,-0.32773 0.30475,-0.60254 1.12733,-0.61069 4.57769,-0.0453 18.01504,-3.28628 17.44559,-4.20768 -0.19393,-0.31377 0.0743,-0.4067 0.59597,-0.2065 0.5217,0.2002 4.06269,-0.38627 7.86885,-1.30327 6.39233,-1.54007 14.12704,-2.08403 17.41851,-1.22498 1.32257,0.34518 1.61164,2.8047 0.33333,2.83616 -7.79385,0.19178 -16.88425,1.82465 -20.56141,3.69335 -0.95044,0.483 -3.05044,1.03933 -4.66667,1.23628 -1.61622,0.19695 -4.67822,0.81374 -6.80445,1.37064 -4.49207,1.17657 -6.46747,1.28222 -6.46747,0.34589 0,-0.82126 -1.80419,-0.89008 -2.11111,-0.0805 -0.12222,0.32238 -1.27222,1.22126 -2.55556,1.99751 -2.3514,1.4223 -1.71683,2.02529 0.74489,0.70782 0.72814,-0.38969 1.98342,-0.61469 2.7895,-0.5 1.17008,0.16648 0.7359,0.59203 -2.15311,2.11036 -4.93496,2.59358 -5.97433,3.27809 -6.31146,4.15662 -0.38212,0.99579 11.05033,-3.74664 11.99541,-4.97596 1.087,-1.41394 5.42871,-0.50437 11.48842,2.40676 2.81216,1.35099 5.36032,2.38615 5.66257,2.30036 0.30226,-0.0858 0.3729,0.12986 0.15699,0.47921 -0.21591,0.34935 0.21179,0.827 0.95045,1.06144 0.73865,0.23444 1.34301,0.69966 1.34301,1.03383 0,0.33417 2.0984,1.99 4.66311,3.67964 2.5647,1.68964 4.83241,3.34602 5.03934,3.68084 0.20693,0.33482 0.82022,0.60876 1.36286,0.60876 0.75671,0 0.66899,-0.34094 -0.37642,-1.46306 -0.89568,-0.9614 -1.21908,-1.93291 -0.94315,-2.83334 0.60914,-1.98782 0.637,-1.99315 3.39709,-0.6495 1.38811,0.67575 2.73415,1.24002 2.9912,1.25394 0.25705,0.0139 2.0216,1.18564 3.92122,2.60384 1.89962,1.41819 3.24206,2.16819 2.9832,1.66666 -0.25887,-0.50153 -0.0403,-0.38687 0.48561,0.2548 1.32521,1.61679 1.68054,1.46049 1.29266,-0.56862 -0.18245,-0.9544 -1.35085,-2.7544 -2.59644,-4 -1.86426,-1.86425 -2.76544,-2.26472 -5.09634,-2.26472 -2.52165,0 -2.91267,-0.2147 -3.57196,-1.96137 -0.82141,-2.17615 -0.58165,-2.70529 1.2258,-2.70529 0.67222,0 1.22222,-0.15597 1.22222,-0.34658 0,-0.60667 -3.16443,-5.24849 -4.94732,-7.25712 -0.94564,-1.06536 -1.71935,-2.03123 -1.71935,-2.14636 0,-0.11514 1.08112,-0.1687 2.40248,-0.11902 2.17844,0.0819 2.66026,0.48282 5.16667,4.29916 l 2.76419,4.20884 4.7788,0.0139 c 2.62835,0.008 5.25335,0.19597 5.83334,0.41853 1.83042,0.7024 1.14717,2.12803 -1.42706,2.9776 -4.99598,1.64883 -5.04101,3.80846 -0.13687,6.56474 1.97918,1.11236 2.82618,2.27832 4.35578,5.99604 1.04436,2.53834 2.11501,4.48155 2.37924,4.31826 0.26422,-0.1633 0.36452,0.3048 0.22289,1.04021 -0.14162,0.73542 0.0159,1.5061 0.35007,1.71262 0.33417,0.20653 0.94364,1.62355 1.35438,3.14894 l 0.74681,2.77345 1.20901,-1.60283 c 0.66496,-0.88155 1.59647,-2.81726 2.07003,-4.30159 0.47356,-1.48432 1.30384,-3.40084 1.84507,-4.25894 0.57165,-0.90634 1.00523,-3.2772 1.0346,-5.65738 0.0399,-3.22919 0.28053,-4.14153 1.13601,-4.3064 0.8752,-0.16867 1.17342,0.61232 1.53965,4.03212 0.36999,3.45491 0.19964,4.88714 -0.91877,7.72458 -2.35774,5.98163 -1.29822,7.47141 1.23721,1.73964 0.72316,-1.63481 1.60464,-2.97238 1.95885,-2.97238 0.75956,0 -0.5758,6.22287 -1.83626,8.5571 -1.4556,2.69562 -0.2349,2.36779 1.72471,-0.4632 1.03171,-1.49048 2.25084,-2.72135 2.70917,-2.73527 0.45834,-0.0139 0.83334,-0.3253 0.83334,-0.69197 0,-0.36666 0.3,-0.66666 0.66666,-0.66666 1.07334,0 0.7799,1.18045 -0.99064,3.98518 -0.91152,1.44394 -1.73652,3.01298 -1.83333,3.48675 -0.0968,0.47377 -0.34166,1.0114 -0.5441,1.19473 -0.94516,0.85597 -2.69012,5.50933 -2.44732,6.52639 0.21953,0.91961 0.4157,0.81774 1.01368,-0.52639 1.09042,-2.451 3.30658,-5.05069 3.84585,-4.51141 0.49623,0.49623 -0.77903,4.21066 -1.98137,5.7711 -0.39257,0.5095 -1.0578,2.1595 -1.47829,3.66667 -0.42049,1.50717 -1.38584,4.35003 -2.14523,6.31746 -1.73854,4.50429 -2.04641,6.86495 -2.40262,18.42285 -0.36534,11.85449 -0.87573,15.2968 -2.11549,14.26789 -0.924,-0.76685 -1.48989,-0.0722 -1.83022,2.24661 -0.0768,0.52357 -0.6105,1.672 -1.18589,2.55206 -0.5754,0.88006 -1.25964,2.27511 -1.52053,3.10011 -0.65756,2.07936 0.77613,1.94178 1.7368,-0.16667 0.49502,-1.08644 1.30236,-1.66666 2.31905,-1.66666 1.92758,0 1.94752,0.61172 0.12432,3.81305 -1.49577,2.6264 -2.12008,6.18695 -1.08481,6.18695 0.32936,0 0.37956,0.375 0.11156,0.83333 -0.268,0.45833 0.11291,0.30833 0.84648,-0.33333 0.73357,-0.64167 1.53868,-1.16667 1.78914,-1.16667 0.87886,0 -0.41305,5.6809 -1.59189,7 -0.67795,0.75862 -1.27309,2.62645 -1.38072,4.33333 -0.10405,1.65 -0.49517,3.20869 -0.86916,3.46376 -1.31153,0.89446 0.16672,1.2859 1.57015,0.41577 1.19815,-0.74285 1.51745,-0.72413 2.05472,0.12047 0.34986,0.55 0.65025,1.75 0.66752,2.66667 0.0173,0.91667 0.45409,2.22469 0.97069,2.90671 0.83595,1.10362 1.15835,1.14306 2.93072,0.35854 1.09529,-0.48482 1.84749,-1.11441 1.67156,-1.39907 -0.17593,-0.28467 0.13505,-0.343 0.69108,-0.12963 0.93567,0.35905 4.11715,-1.45305 6.33018,-3.60554 0.51621,-0.50209 1.64121,-0.77856 2.5,-0.61439 1.01899,0.19479 1.56144,-0.0168 1.56144,-0.60907 0,-1.08613 1.44919,-1.14564 4.85656,-0.19942 1.55324,0.43134 3.79328,1.9842 5.82707,4.0395 1.81711,1.83634 3.6141,3.14706 3.9933,2.9127 0.37919,-0.23436 0.62966,-0.1788 0.55658,0.12345 -0.0731,0.30226 0.26505,1.36884 0.75137,2.37018 0.72661,1.49609 1.193,1.74934 2.61635,1.42069 1.69762,-0.39197 3.38788,-1.34461 5.41517,-3.05198 1.58007,-1.33073 2.78831,-7.11779 2.03027,-9.72427 -0.52153,-1.79325 -0.44371,-2.27704 0.41959,-2.60832 0.6373,-0.24456 1.41939,0.10163 1.96154,0.86827 0.49592,0.70124 1.5669,1.98415 2.37997,2.8509 3.71387,3.95907 5.1947,8.1118 5.48617,15.38498 0.14045,3.50484 0.55199,7.27244 0.91454,8.37244 1.08089,3.27955 2.86881,7.26515 3.73829,8.33333 0.93221,1.14524 2.48932,6.11947 2.05239,6.55641 -1.13269,1.13268 -6.62538,-6.48381 -7.26894,-10.07956 -0.28395,-1.58653 -1.25037,-4.14884 -1.68851,-4.47685 -0.64467,-0.48261 -3.36327,-7.05169 -4.49375,-10.85844 l -0.96927,-3.26387 -1.8902,2.98053 c -1.54263,2.43248 -2.362,3.06462 -4.45601,3.4378 -9.9804,1.77861 -16.40614,0.9081 -20.02742,-2.71318 -1.25463,-1.25464 -2.57147,-2.10174 -2.92629,-1.88245 -0.35482,0.2193 -0.5627,0.15142 -0.46195,-0.15084 0.28222,-0.84665 -0.90685,-1.0389 -3.68152,-0.59521 -1.6514,0.26407 -2.36879,0.66786 -2.06366,1.16156 0.27132,0.43901 0.17217,0.57413 -0.23611,0.32179 -0.38711,-0.23924 -2.71209,0.1853 -5.16664,0.94344 -2.45454,0.75813 -5.70918,1.3297 -7.23251,1.27015 -4.37081,-0.17085 -5.10304,-0.0431 -5.10304,0.89017 0,0.48113 -0.56942,2.05613 -1.26537,3.5 -0.69595,1.44387 -1.62279,3.97522 -2.05964,5.62522 -0.43686,1.65 -1.82292,5.35199 -3.08015,8.22666 -1.25723,2.87466 -2.37335,6.02466 -2.48027,7 -0.29836,2.72155 -1.28453,3.94173 -3.11457,3.8536 -2.24099,-0.10792 -2.58623,-1.30404 -1.54026,-5.33637 1.34938,-5.202 0.71501,-5.09533 -1.93545,0.32544 -1.32595,2.71187 -2.27004,5.07198 -2.09798,5.2447 0.17207,0.17271 0.59195,-0.12729 0.93306,-0.66667 0.37248,-0.58897 0.62429,-0.66577 0.63042,-0.19229 0.006,0.43363 0.68521,1.00026 1.51021,1.25919 0.825,0.25893 3.3381,1.77914 5.58466,3.37826 2.24656,1.59911 4.39656,2.90748 4.77778,2.90748 0.38121,0 0.81793,0.37445 0.97048,0.8321 0.19825,0.59474 1.31524,0.30699 3.91566,-1.0087 3.06524,-1.55087 4.57912,-1.8625 9.61152,-1.97852 5.03933,-0.11618 6.39016,0.0891 8.6399,1.31315 1.46667,0.79798 3.49167,1.79321 4.5,2.21163 1.00833,0.41843 1.83333,0.97543 1.83333,1.23779 0,0.26236 1.12266,0.90801 2.4948,1.43479 5.44985,2.09221 11.84287,5.44694 13.45798,7.06205 0.93699,0.937 3.05593,2.42452 4.70876,3.30562 3.16411,1.68673 4.47148,2.46652 7.55363,4.50539 2.68959,1.77919 3.44398,0.75542 2.54211,-3.44987 -0.39277,-1.8314 -1.50777,-5.08534 -2.47779,-7.23096 l -1.76367,-3.90114 -1.01585,3 c -0.55871,1.65 -1.07612,3.07636 -1.1498,3.16968 -0.0737,0.0933 -1.10341,-0.16829 -2.2883,-0.58134 -1.65386,-0.57654 -2.51875,-1.54766 -3.72287,-4.18015 -0.86269,-1.88603 -1.77441,-4.24943 -2.02604,-5.252 -0.5698,-2.27027 -1.64629,-2.38774 -1.64629,-0.17964 0,1.83721 -1.678,3.02345 -4.27681,3.02345 -1.31067,0 -1.78905,-0.41803 -2.09801,-1.83333 -1.04342,-4.77964 -2.94597,-7.34311 -2.96872,-4 -0.0179,2.63267 -0.94432,3.38612 -3.56007,2.8954 -2.69345,-0.50529 -3.09404,-0.94293 -3.45198,-3.77124 -0.36977,-2.92178 -3.73857,-8.87801 -4.41683,-7.80921 -0.29727,0.46844 -0.54509,1.49419 -0.55071,2.27944 -0.007,0.99331 -0.56154,1.56611 -1.82215,1.8825 -0.99657,0.25012 -3.00567,1.33265 -4.46467,2.40561 -1.64554,1.21015 -3.47344,1.95083 -4.81435,1.95083 h -2.16163 l -0.46208,-4.6894 c -0.25415,-2.57916 -0.54731,-4.60416 -0.65148,-4.5 -0.10417,0.10417 -0.15117,0.3394 -0.10445,0.52274 0.0467,0.18333 -0.63118,1.15695 -1.50645,2.1636 -1.45933,1.67838 -1.68705,1.7437 -2.74405,0.78713 -1.06474,-0.96358 -1.18675,-0.88792 -1.59964,0.99196 -0.24584,1.11931 -0.44976,2.2651 -0.45314,2.54621 -0.0299,2.48438 -4.2421,2.937 -5.31983,0.57164 -0.60133,-1.31978 -0.35308,-2.65688 1.39251,-7.5 1.16837,-3.24163 2.40691,-7.24388 2.75232,-8.89388 1.29508,-6.18658 3.46649,-11.67681 5.20173,-13.15212 1.4057,-1.19514 2.27611,-1.41207 4.45372,-1.10998 2.92254,0.40543 14.7623,-1.48115 16.12677,-2.56968 0.56001,-0.44677 1.12677,-0.42128 1.728,0.0777 0.49207,0.40838 1.01707,0.62537 1.16667,0.4822 0.1496,-0.14317 0.65882,0.15944 1.13161,0.67245 0.7087,0.76901 0.67086,0.93276 -0.21555,0.93276 -1.15796,0 -1.12754,2.29071 0.0317,2.3892 2.80199,0.23805 5.6576,3.0869 5.12295,5.1108 -0.0726,0.275 0.16792,0.5 0.53459,0.5 0.36666,0 0.66666,0.39386 0.66666,0.87524 0,1.41417 3.27528,7.79143 4.00158,7.79143 0.3658,0 0.59009,0.375 0.49842,0.83334 -0.10477,0.52385 0.46009,0.77054 1.52101,0.66426 1.86162,-0.18649 6.85645,2.06939 6.14878,2.77706 -0.24469,0.24469 0.20707,0.61539 1.00392,0.82376 0.79684,0.20838 1.62895,0.94649 1.84914,1.64023 0.22019,0.69374 0.77399,1.26135 1.23069,1.26135 0.45669,0 1.6926,0.9 2.74646,2 1.05387,1.1 2.29509,2 2.75827,2 0.46318,0 1.08205,0.3822 1.37527,0.84934 0.29322,0.46714 1.28313,1.3307 2.1998,1.91903 0.91666,0.58833 2.47315,1.82464 3.45885,2.74736 0.9857,0.92272 1.93331,1.53655 2.1058,1.36407 0.17248,-0.17249 0.51121,0.309 0.75273,1.06996 0.24153,0.76097 0.71892,1.38358 1.06088,1.38358 0.34195,0 0.62174,0.32142 0.62174,0.71428 0,1.85431 1.73121,2.50555 4.61462,1.73592 2.7899,-0.74466 2.86666,-0.71943 4.72013,1.55154 1.86512,2.28524 1.89816,2.29578 3.27877,1.04635 0.76706,-0.69418 1.47993,-1.13898 1.58416,-0.98845 0.72585,1.04825 3.06669,9.51259 2.76551,9.99991 -0.20637,0.33391 -0.84501,0.60711 -1.4192,0.60711 -0.83107,0 -0.94688,0.4419 -0.56782,2.16667 0.79622,3.6229 0.74481,3.92755 -0.84432,5.00325 -1.10692,0.7493 -1.47864,0.80073 -1.33333,0.18451 0.39479,-1.67422 -1.30742,-1.37009 -3.43018,0.61287 -1.74337,1.62856 -2.40041,1.88406 -3.42913,1.3335 -1.55677,-0.83315 -1.55833,-0.78299 -0.16125,5.19048 1.1904,5.08977 1.02855,6.00021 -0.91588,5.15191 -0.65748,-0.28684 -1.43649,-0.46855 -1.73113,-0.40379 -0.29464,0.0648 -0.92846,-0.26261 -1.40847,-0.72749 -4.32397,-4.18763 -7.02347,-6.41179 -8.25747,-6.80344 -0.80575,-0.25574 -1.46501,-0.72455 -1.46501,-1.0418 0,-0.31725 -0.525,-0.74991 -1.16667,-0.96148 -0.64167,-0.21156 -2.21667,-1.27857 -3.5,-2.37113 -1.28333,-1.09257 -2.72655,-2.31854 -3.20716,-2.72438 -0.59315,-0.50089 -1.44967,-0.53335 -2.66666,-0.10108 -0.98607,0.35025 -3.59285,1.19748 -5.79285,1.88274 -2.2,0.68525 -5.27218,2.09689 -6.82708,3.13697 -1.5549,1.04008 -3.62631,2.03598 -4.60313,2.21311 -0.97683,0.17714 -2.29207,0.59823 -2.92276,0.93576 -0.63069,0.33754 -3.28428,0.45231 -5.89686,0.25505 L 196,356.5736 v 2.08588 c 0,1.40694 0.25052,1.93106 0.76967,1.61021 0.48255,-0.29824 0.58847,-0.1825 0.28393,0.31025 -0.65412,1.0584 0.22519,4.8658 1.01152,4.37983 0.34281,-0.21187 0.47748,-0.62115 0.29926,-0.90952 -0.17822,-0.28836 0.39194,-0.38743 1.26703,-0.22014 1.68406,0.32193 2.67901,2.58524 1.96007,4.45875 -0.22402,0.58381 -0.0612,1.47847 0.36176,1.98815 0.58705,0.70735 0.56526,1.00846 -0.0921,1.27221 -0.60225,0.24165 -0.54833,0.36135 0.17934,0.39816 0.71025,0.0359 1.4208,-1.21694 2.23869,-3.94737 0.659,-2.2 1.43079,-4 1.71508,-4 0.28429,0 0.6738,-0.6 0.86557,-1.33333 0.23527,-0.8997 0.90934,-1.33333 2.07261,-1.33333 1.7034,0 1.72225,0.0556 1.58322,4.6684 -0.12526,4.15556 0.0222,4.78251 1.34228,5.70714 0.81565,0.5713 1.94407,1.93033 2.50759,3.02006 0.59333,1.14738 1.33659,1.78849 1.76586,1.52319 0.46174,-0.28537 0.55293,-0.15338 0.24182,0.35002 -0.66533,1.07651 2.7763,6.25682 3.75498,5.65196 0.43536,-0.26907 0.55879,-0.15966 0.29727,0.26349 -0.24597,0.39798 -0.17643,0.89096 0.15453,1.09551 0.33096,0.20454 0.75777,-0.22473 0.94846,-0.95394 0.45984,-1.7584 1.29115,-1.67203 3.74008,0.38861 2.051,1.7258 3.39813,1.69126 3.39813,-0.0871 0,-0.52836 0.3,-0.96066 0.66667,-0.96066 0.36666,0 0.66666,0.29059 0.66666,0.64575 0,0.35516 0.43609,0.4784 0.96908,0.27387 1.76921,-0.67891 6.81301,4.21799 7.38069,7.16572 0.15712,0.81583 0.58512,1.66841 0.95111,1.89461 0.366,0.2262 0.75671,0.99825 0.86824,1.71566 0.11154,0.71742 0.43397,1.67479 0.71652,2.12749 0.28255,0.4527 0.766,2.1027 1.07434,3.66666 0.5558,2.8192 0.56123,2.80786 0.63365,-1.32309 0.0402,-2.29166 -0.15196,-4.16723 -0.42696,-4.16791 -0.67902,-0.002 -0.63832,-5.74055 0.0456,-6.42935 0.79679,-0.80248 3.08892,2.48025 3.10624,4.44869 0.008,0.92662 0.91483,2.67013 2.01483,3.87448 1.84054,2.01514 2.28979,2.93874 2.07894,4.27409 -0.0434,0.275 0.22106,0.5 0.58772,0.5 0.36667,0 0.66667,-0.3177 0.66667,-0.70601 0,-0.38831 0.25457,-0.54868 0.5657,-0.35639 0.31114,0.1923 1.22536,-0.26493 2.0316,-1.01606 1.13491,-1.05732 1.67358,-1.19332 2.38568,-0.60233 1.62278,1.34679 0.45238,5.3795 -2.41245,8.31236 -2.46433,2.52284 -3.14198,3.72711 -2.07053,3.67959 0.83492,-0.037 3.5,-2.47857 3.5,-3.20643 0,-0.68219 2.54371,-1.78324 3.01983,-1.30712 0.13897,0.13897 0.3291,1.38743 0.4225,2.77435 0.0934,1.38692 0.36803,2.64417 0.61027,2.79388 1.22121,0.75476 12.13663,-11.59475 12.75063,-14.42583 0.10823,-0.499 1.37383,-1.51463 2.81246,-2.25697 1.43863,-0.74234 4.28863,-2.92045 6.33333,-4.84026 2.04471,-1.9198 3.93655,-3.4948 4.2041,-3.5 0.26754,-0.005 1.11104,-1.23375 1.87444,-2.73013 1.3153,-2.57821 1.46439,-2.67026 2.84688,-1.75768 0.8561,0.56511 1.54363,1.80585 1.66398,3.00289 0.1636,1.62711 -0.27483,2.4766 -2.16666,4.19813 -1.30447,1.18704 -2.37176,2.46863 -2.37176,2.84798 0,0.91016 -3.39096,4.42937 -4.26795,4.42937 -0.37684,0 -1.29571,0.58754 -2.04194,1.30566 -11.84663,11.40031 -19.45922,19.02596 -20.77856,20.81422 -0.89817,1.2174 -1.78218,2.11978 -1.96448,2.0053 -0.1823,-0.11448 -1.89496,0.78281 -3.80593,1.99397 -1.91096,1.21116 -3.99947,2.42016 -4.64114,2.68666 -0.64167,0.2665 -1.16667,0.73395 -1.16667,1.03878 0,0.30482 -1.05,0.93391 -2.33333,1.39797 -1.28333,0.46406 -2.33333,1.17432 -2.33333,1.57837 0,0.40404 -0.18572,0.54891 -0.4127,0.32192 -0.22699,-0.22698 -0.81657,-0.052 -1.3102,0.38889 -1.8801,1.67919 -2.65173,2.14207 -3.94377,2.36579 -0.73333,0.12698 -2.53333,0.64762 -4,1.15697 -1.46667,0.50935 -3.30798,0.93046 -4.09182,0.93579 -1.58614,0.0108 -10.44808,3.95207 -10.79707,4.8019 -0.12222,0.29763 -0.5993,0.54114 -1.06018,0.54114 -1.31472,0 -9.05093,4.03327 -9.05093,4.7187 0,0.33805 -0.51428,0.61463 -1.14286,0.61463 -1.06089,0 -1.06416,0.0787 -0.0456,1.09726 2.38139,2.3814 18.77203,2.47865 29.37039,0.17426 z m 13.91448,-72.16812 c -0.59291,-0.72646 -1.06129,-4.7032 -0.85627,-7.27007 0.12728,-1.59349 1.34489,-1.4648 2.87923,0.30431 1.67198,1.92781 1.489,7.32069 -0.25692,7.57206 -0.62565,0.0901 -1.42037,-0.18276 -1.76604,-0.6063 z m 89.90358,-68.92225 c -0.55,-0.20914 -1.65545,-0.88825 -2.45655,-1.50914 l -1.45655,-1.12888 3.48569,-4.6049 c 5.05006,-6.67158 6.27086,-8.88613 7.46232,-13.53685 0.80694,-3.1498 0.89548,-4.64188 0.36567,-6.16171 -0.62386,-1.7896 -0.31333,-2.79291 2.88502,-9.32115 1.97128,-4.02362 3.83845,-7.3763 4.14927,-7.45039 0.675,-0.16091 3.39444,-3.2858 5.49754,-6.31718 1.40965,-2.03185 7.99116,-6.81762 9.37576,-6.81762 0.33859,0 1.68529,-0.63113 2.99268,-1.4025 1.30738,-0.77138 2.81492,-1.23448 3.35009,-1.02912 0.53516,0.20536 1.15034,0.0865 1.36705,-0.26416 0.83134,-1.34514 2.15987,-0.53326 3.31343,2.02487 1.35548,3.00592 1.51234,8.99083 0.46316,17.67091 -0.79199,6.55227 -0.91737,7.07511 -1.96738,8.20454 -0.4617,0.49662 -0.67444,1.16996 -0.47275,1.4963 0.53143,0.85987 -1.56763,4.63249 -2.57749,4.63249 -0.4705,0 -1.4378,-0.4277 -2.14954,-0.95044 -1.14785,-0.84304 -1.29409,-1.79705 -1.29409,-8.44218 0,-5.39959 -0.23272,-7.56994 -0.83333,-7.77178 -0.45834,-0.15402 -0.83334,-0.51733 -0.83334,-0.80736 0,-0.29002 -0.9763,-1.59319 -2.16956,-2.89593 -1.82857,-1.99633 -2.37867,-2.25791 -3.5,-1.66429 -2.78562,1.47466 -7.36068,7.40436 -6.62778,8.59021 0.2495,0.4037 1.17885,0.59537 2.06523,0.42592 0.88638,-0.16944 1.45902,-0.15549 1.27253,0.031 -0.18649,0.18649 0.92813,1.14479 2.47692,2.12955 3.78647,2.40753 4.72445,4.3453 4.25212,8.78441 -0.54886,5.15841 -1.41825,9.37328 -2.24917,10.90424 -0.39802,0.73333 -1.12027,2.68333 -1.60501,4.33333 -0.95384,3.2468 -1.06757,3.42369 -4.66438,7.2548 -1.32867,1.41522 -2.52867,2.83685 -2.66666,3.15917 -0.42472,0.99202 -4.54704,3.02104 -5.25227,2.58519 -1.22089,-0.75456 -0.68496,-2.92295 1.02191,-4.1347 0.92796,-0.65879 2.92137,-3.2383 4.42978,-5.73225 l 2.74257,-4.53446 -0.39018,-5.79887 c -0.39426,-5.85957 -1.45224,-10.13221 -2.5089,-10.13221 -0.61395,0 -1.7633,3.75787 -2.52591,8.25867 -0.39366,2.32331 -0.73299,2.77265 -2.22528,2.94672 -1.25211,0.14606 -2.07636,0.87041 -2.85315,2.50738 -0.6008,1.2661 -0.90901,2.59867 -0.68491,2.96128 0.2241,0.3626 0.11302,0.65928 -0.24685,0.65928 -0.35987,0 -1.00084,1.05 -1.42438,2.33333 -0.42354,1.28334 -1.07495,2.33334 -1.44759,2.33334 -0.43024,0 -0.50921,1.22379 -0.21636,3.35304 0.31287,2.27485 0.19955,3.66827 -0.35241,4.33334 -0.81017,0.97619 -3.41377,1.21847 -5.31697,0.49477 z M 210.33333,294.00001 c 0.22661,-0.36667 0.54432,-0.66667 0.70601,-0.66667 0.16169,0 0.29399,0.3 0.29399,0.66667 0,0.36667 -0.31771,0.66667 -0.70601,0.66667 -0.38831,0 -0.5206,-0.3 -0.29399,-0.66667 z m 128.2797,-21.56852 c -2.83736,-1.41458 -3.06852,-3.73496 -0.98672,-9.90469 1.02567,-3.03973 2.40287,-6.57679 3.06044,-7.86012 1.45149,-2.8328 5.12761,-6.66667 6.39235,-6.66667 1.45081,0 1.09487,3.13145 -0.7064,6.21462 -0.89501,1.53196 -1.77424,3.60543 -1.95386,4.60772 -0.17961,1.00228 -0.51434,2.12615 -0.74384,2.49749 -0.63275,1.02381 -1.11421,3.33156 -1.44567,6.92946 -0.37672,4.08907 -1.40885,5.28272 -3.6163,4.18219 z M 213.4001,257.74713 c -0.62728,-0.75583 -0.58426,-1.48031 0.19926,-3.35554 1.6209,-3.87936 3.20592,-3.10352 2.49309,1.22033 -0.47105,2.85724 -1.44927,3.63303 -2.69235,2.13521 z m 70.95837,-1.61086 c -0.88959,-0.8896 -0.18501,-1.47149 1.80819,-1.49334 4.42258,-0.0485 14.24846,-3.10963 16.68242,-5.19725 0.83182,-0.71346 1.39165,-0.80494 1.88807,-0.30852 1.20893,1.20894 -0.79738,3.49142 -4.73716,5.38925 -3.01967,1.45461 -4.69154,1.7841 -9.47485,1.8673 -3.1945,0.0556 -5.9695,-0.0603 -6.16667,-0.25744 z m -20.82615,-2.4137 c -1.17389,-0.42296 -2.34889,-0.98357 -2.61111,-1.24579 -0.26223,-0.26222 -0.84834,-0.47677 -1.30248,-0.47677 -0.88281,0 -8.53326,-4.60374 -12.11874,-7.29257 -2.12737,-1.59537 -2.86044,-3.69839 -1.45275,-4.16762 0.39266,-0.13089 -0.33272,-1.31567 -1.61195,-2.63284 -1.27922,-1.31718 -3.22562,-4.16009 -4.32533,-6.31759 -1.09971,-2.15749 -3.07433,-5.04841 -4.38805,-6.42426 -1.31372,-1.37585 -2.38858,-2.78674 -2.38858,-3.1353 0,-1.39639 1.58269,-3.98389 2.59289,-4.23906 0.71998,-0.18186 0.35269,-0.54555 -1.11471,-1.10381 -2.58573,-0.98373 -2.46028,-2.19607 0.57065,-5.51452 1.07314,-1.17493 1.95117,-2.63266 1.95117,-3.23938 0,-0.60672 0.45725,-1.48261 1.01611,-1.94642 0.55886,-0.46382 0.87704,-0.98237 0.70707,-1.15234 -0.16997,-0.16997 0.42278,-1.04086 1.31722,-1.9353 2.09251,-2.09251 2.06667,-3.81764 -0.0718,-4.79198 -1.98723,-0.90544 -2.35991,-0.95309 -2.14048,-0.27368 0.0888,0.275 -0.33255,1.20088 -0.93638,2.05751 -0.89675,1.2722 -1.3377,1.42914 -2.40716,0.85679 -0.72012,-0.3854 -1.52375,-0.48628 -1.78585,-0.22418 -0.2621,0.2621 -0.37654,0.0511 -0.25432,-0.46895 0.12222,-0.52002 -0.42078,-1.28174 -1.20667,-1.69269 -0.7859,-0.41096 -1.91815,-1.15324 -2.51611,-1.64951 -0.59797,-0.49627 -1.27997,-0.70955 -1.51555,-0.47397 -0.23558,0.23558 -0.0783,0.42833 0.34944,0.42833 0.42778,0 0.77778,0.6321 0.77778,1.40466 0,0.99559 0.30131,1.28904 1.03463,1.00764 0.56904,-0.21836 0.87928,-0.14567 0.68942,0.16153 -0.18987,0.30721 0.39455,0.95446 1.2987,1.43835 2.77901,1.48728 1.8263,5.17222 -1.06108,4.10411 -1.29129,-0.47767 -1.73204,-0.33086 -2.28111,0.75984 -1.22748,2.43837 -2.34034,1.97932 -6.89388,-2.84369 -5.03542,-5.3334 -6.15594,-7.78309 -7.75454,-16.9531 -1.47508,-8.46146 -1.35496,-13.32342 0.4066,-16.45769 2.67039,-4.75132 5.25369,-4.07624 3.96629,1.03649 -0.75119,2.98322 -0.3759,9.6752 0.54259,9.6752 0.24338,0 0.79347,1.275 1.22242,2.83333 0.42895,1.55833 1.46617,3.6572 2.30494,4.66414 1.51632,1.82037 1.55086,1.8267 6.0544,1.10995 4.39243,-0.69905 4.59906,-0.66771 6.83334,1.03646 2.09448,1.59754 2.30395,1.64189 2.30395,0.48787 0,-1.09443 0.66973,-1.32605 4.85808,-1.6801 2.67194,-0.22586 6.04694,-0.82968 7.5,-1.34182 1.8168,-0.64035 3.16212,-0.73843 4.30753,-0.31405 0.92829,0.34393 3.14165,0.38782 5,0.0991 1.83391,-0.28489 3.63439,-0.53572 4.00105,-0.55741 0.36667,-0.0217 0.96667,-0.22463 1.33334,-0.45099 0.36666,-0.22636 4.41666,-0.45167 9,-0.50069 6.75932,-0.0723 8.99441,0.15532 11.83333,1.20504 1.925,0.71179 3.5,1.02004 3.5,0.68498 0,-0.33505 -0.2584,-0.60919 -0.57422,-0.60919 -0.31582,0 -0.43486,-0.72902 -0.26453,-1.62005 0.31202,-1.63218 2.30867,-2.0996 3.83875,-0.89865 4.0334,3.1658 13.87947,8.5187 15.66921,8.5187 0.41348,0 1.35143,0.32093 2.08433,0.71316 1.11056,0.59436 1.19075,0.88402 0.48133,1.73881 -0.69671,0.8395 -0.67261,1.16381 0.13279,1.78684 1.31513,1.01734 3.29952,4.16989 3.29692,5.23774 -0.003,1.37126 -5.37804,3.62406 -7.65644,3.2092 -2.54545,-0.46349 -2.88825,-2.16782 -0.67433,-3.35267 1.50645,-0.80623 1.58025,-0.99483 0.60322,-1.5416 -1.32969,-0.74414 -7.39037,-0.13178 -8.59561,0.86848 -0.92857,0.77065 -8.63063,1.85266 -10.50809,1.47621 -2.40377,-0.48198 -0.82583,-3.22653 2.18886,-3.8071 2.20225,-0.42412 2.45823,-0.99573 0.44591,-0.99573 -0.96477,0 -3.11922,0.76213 -4.78768,1.69361 -1.66846,0.93149 -3.4041,1.61855 -3.85699,1.5268 -0.45289,-0.0917 -1.45658,0.18428 -2.23043,0.6134 -0.77386,0.42913 -3.02386,0.89231 -5,1.02931 -2.28182,0.15818 -3.53218,0.53271 -3.42633,1.02631 0.0917,0.42748 -0.15477,0.77723 -0.54762,0.77723 -1.14533,0 0.93869,1.77087 2.74538,2.33285 2.4237,0.7539 7.30224,4.28555 7.30224,5.2862 0,0.94614 -2.78647,0.19775 -7.04002,-1.89079 -5.24992,-2.57778 -10.29332,-3.4079 -10.29332,-1.69424 0,0.95756 3.56277,2.36504 8.10792,3.20305 2.07602,0.38277 4.85646,1.14798 6.17876,1.70048 1.32231,0.55249 2.48112,0.94256 2.57514,0.86683 0.094,-0.0757 0.61358,0.23516 1.15457,0.69089 5.58219,4.70248 6.8887,5.53212 7.41218,4.7068 0.40793,-0.64314 0.55367,-0.55555 0.56122,0.33728 0.006,0.66331 0.31021,1.0206 0.67688,0.79399 0.36667,-0.22661 0.66667,-0.0766 0.66667,0.33333 0,0.40995 0.27437,0.57578 0.60972,0.36853 0.33535,-0.20726 0.71035,-0.1325 0.83334,0.16614 0.12298,0.29863 1.9486,1.67968 4.05694,3.06898 4.14779,2.73322 4.91001,4.00326 2,3.3325 -3.28019,-0.75608 -13.76911,-4.42561 -16.3562,-5.72219 -1.38758,-0.69541 -2.81258,-1.08533 -3.16667,-0.86649 -0.35409,0.21884 -0.6438,0.10694 -0.6438,-0.24865 0,-0.3556 -1.35,-1.30007 -3,-2.09882 -1.65,-0.79875 -3,-1.74322 -3,-2.09881 0,-0.3556 -0.3,-0.46113 -0.66667,-0.23452 -0.36666,0.22661 -0.66666,0.0943 -0.66666,-0.29399 0,-0.38831 -0.45,-0.70601 -1,-0.70601 -0.6103,0 -1,0.6217 -1,1.59534 0,1.60927 -1.09701,2.40466 -3.31654,2.40466 -1.54325,0 -2.25633,1.76543 -0.92018,2.27816 0.55684,0.21368 2.18019,0.38851 3.60745,0.38851 2.23036,0 2.74593,0.29181 3.66888,2.0766 0.59062,1.14213 0.82332,2.32492 0.51712,2.62843 -0.80422,0.79714 -6.04173,1.87726 -7.75976,1.60027 -0.805,-0.12979 -2.7019,-0.43615 -4.21532,-0.6808 -1.54815,-0.25027 -3.7174,-1.26905 -4.95964,-2.32928 -1.21438,-1.03645 -2.52612,-1.70378 -2.91498,-1.48296 -0.38887,0.22083 -0.52113,0.1925 -0.29392,-0.0629 0.54478,-0.61246 -1.08341,-5.30609 -1.93965,-5.5915 -0.3666,-0.1222 -1.07134,0.69229 -1.56608,1.80999 -0.49474,1.1177 -1.3763,2.03219 -1.95901,2.03219 -0.58272,0 -1.25062,0.19113 -1.48423,0.42474 -0.57686,0.57686 2.16337,4.34481 2.85078,3.91997 0.30047,-0.1857 1.40253,0.10892 2.44903,0.65472 1.04649,0.54579 2.24495,0.9942 2.66324,0.99646 0.4183,0.002 2.0683,0.59752 3.66667,1.3228 3.06458,1.39058 11.59262,1.9096 12.01725,0.73136 0.12222,-0.33914 2.56976,-0.79302 5.43898,-1.00864 3.11165,-0.23384 6.32315,-0.92658 7.95855,-1.71672 1.50799,-0.72858 3.44486,-1.32469 4.30417,-1.32469 2.23107,0 2.63253,1.75194 0.75911,3.31271 l -1.57192,1.30959 1.53657,0.0222 c 0.84512,0.0122 2.90913,-0.60309 4.5867,-1.36731 2.7833,-1.26794 3.14252,-1.2971 4.10628,-0.33333 0.932,0.93199 0.94028,1.17203 0.0705,2.04185 -1.51116,1.51117 -10.0404,4.26978 -13.8733,4.48705 -1.88155,0.10666 -3.42229,0.42758 -3.42386,0.71317 -0.004,0.66481 -8.91032,0.15598 -10.09593,-0.57677 -0.65942,-0.40754 -0.45862,-0.67324 0.76646,-1.01422 1.23763,-0.34447 0.81188,-0.48304 -1.67338,-0.54465 -1.83334,-0.0454 -4.97962,-0.26699 -6.99175,-0.4923 -3.40567,-0.38137 -3.59269,-0.33049 -2.70721,0.73645 0.57161,0.68875 1.55792,1.03014 2.47157,0.85549 0.8362,-0.15985 1.38117,-0.0654 1.21104,0.20987 -0.17013,0.27528 0.21395,0.71414 0.85351,0.97525 1.06497,0.43479 1.05062,0.52089 -0.1705,1.023 -0.73333,0.30154 -2.15833,0.56934 -3.16666,0.59511 -1.00834,0.0258 -1.83334,0.32165 -1.83334,0.6575 0,1.12106 4.96398,4.46513 7.87468,5.30492 3.84359,1.10895 3.64265,2.92358 -0.38342,3.46259 -1.55698,0.20845 -2.82459,0.10164 -2.82459,-0.23799 0,-0.33888 -0.4464,-0.44485 -0.992,-0.23548 -0.5456,0.20937 -0.9206,0.0567 -0.83334,-0.33935 0.19861,-0.90125 -4.00906,-3.36788 -5.28504,-3.09821 -1.61101,0.34047 7.12367,5.79276 11.54593,7.20711 2.59306,0.82932 4.0492,1.75258 3.52001,2.23184 -0.8389,0.75973 -3.20395,0.82934 -5.0899,0.14982 z m -22.6613,-39.66354 c 0.66239,-1.13246 0.95933,-2.05902 0.65985,-2.05902 -0.97817,0 -4.19754,3.3622 -4.19754,4.38377 0,1.51805 2.09536,0.1411 3.53769,-2.32475 z m 39.12887,-23.81666 c 1.2e-4,-0.89958 -4.1487,-1.55545 -9.56339,-1.51184 -4.07569,0.0328 -4.35452,0.47395 -1.02228,1.6173 2.7439,0.94148 10.58554,0.86336 10.58567,-0.10546 z m -78.04942,61.95278 c -0.94959,-0.22419 -0.95413,-0.69213 -0.0476,-4.91409 0.76811,-3.57742 1.24636,-4.61684 2.04953,-4.45435 0.84288,0.17052 1.00414,0.98996 0.82511,4.19262 -0.23096,4.13162 -1.03268,5.59944 -2.827,5.17582 z m 66.49397,-31.30625 c -0.24445,-0.24445 -0.44445,-0.75445 -0.44445,-1.13334 0,-0.41773 0.31052,-0.37837 0.78889,0.1 0.43389,0.43389 0.63389,0.94389 0.44445,1.13334 -0.18945,0.18944 -0.54445,0.14444 -0.78889,-0.1 z m -63.67908,-4.33115 c 0.99423,-4.425 2.05226,-5.49582 1.53914,-1.55774 -0.46821,3.59329 -0.74253,4.33333 -1.60632,4.33333 -0.30605,0 -0.27582,-1.24902 0.0672,-2.77559 z m -5.10542,-31.23528 c -0.23031,-0.37265 -0.67926,-0.51654 -0.99766,-0.31976 -0.64893,0.40107 -0.43312,-1.2287 1.05315,-7.95325 0.56127,-2.53947 1.11094,-6.73947 1.22148,-9.33333 0.20479,-4.80575 2.05927,-10.38279 3.45248,-10.38279 0.53502,0 0.5572,1.06752 0.0796,3.83333 -0.45491,2.63463 -0.43029,5.60533 0.0787,9.5 0.79818,6.10707 0.26691,12.54842 -1.17863,14.29019 -0.97877,1.17934 -3.07838,1.38629 -3.7092,0.36561 z m -41.07217,-53.60024 c -1.82301,-1.83439 -5.61616,-8.42511 -6.22814,-10.82159 -0.82523,-3.23154 -0.45677,-11.08921 0.56805,-12.11403 0.79255,-0.79255 0.9396,-0.0842 1.00913,4.86083 0.0689,4.9 0.33719,6.21562 1.74783,8.57057 0.91654,1.5301 1.84743,3.30699 2.06865,3.94866 0.22122,0.64167 0.63694,1.16667 0.92382,1.16667 0.42423,0 3.32289,4.86419 3.32289,5.57608 0,0.74989 -2.27314,-0.041 -3.41223,-1.18719 z m 22.23155,298.9549 c 1.40925,-1.14115 2.43983,-8.27011 1.51293,-10.46562 -0.57997,-1.37375 -0.66138,-2.04901 -1.33173,-11.04598 -0.29758,-3.99389 -0.20406,-8.10766 0.2425,-10.66667 0.3998,-2.29103 0.858,-7.0042 1.01823,-10.47371 0.28855,-6.24801 0.2796,-6.29265 -0.93802,-4.67842 -0.96753,1.28268 -1.06187,1.83703 -0.44296,2.60284 0.60965,0.75437 0.6035,0.86325 -0.0274,0.48449 -0.93621,-0.56207 -1.88918,2.30777 -1.28722,3.87645 0.20686,0.53908 0.16422,1.11112 -0.0948,1.27122 -0.56985,0.35225 -0.43412,21.79528 0.15879,25.08495 0.93847,5.20703 0.93894,10.11028 0.001,12.76809 -0.90191,2.55629 -1.31588,5.39399 -0.47485,3.25505 0.21125,-0.53728 0.95973,-1.44299 1.66329,-2.01269 z m -5.28702,-9.34378 c -0.11408,-1.65 -0.19986,-4.35 -0.19062,-6 0.0125,-2.22323 -0.15643,-2.74108 -0.65223,-2 -0.40586,0.60663 -0.67305,0.68767 -0.67925,0.20601 -0.006,-0.43669 0.32182,-0.99919 0.72764,-1.25 0.51435,-0.31789 0.46387,-0.62961 -0.16667,-1.02914 -0.73779,-0.46748 -0.72019,-0.57688 0.0955,-0.59354 0.79862,-0.0163 0.82183,-0.13337 0.11525,-0.58133 -0.68372,-0.43347 -0.73241,-1.15068 -0.21426,-3.15646 0.36878,-1.42755 0.65858,-4.92054 0.64402,-7.76221 -0.0221,-4.31235 -0.20715,-5.17441 -1.11908,-5.21352 -0.92583,-0.0397 -0.93996,-0.11602 -0.0926,-0.5 0.55,-0.24923 1.0059,-0.75314 1.01311,-1.11981 0.007,-0.36667 0.25403,-1.83548 0.54848,-3.26403 0.36314,-1.76184 0.28946,-2.74934 -0.22905,-3.06979 -0.54627,-0.33761 -0.46498,-0.77184 0.28486,-1.52168 1.32261,-1.32261 1.38187,-2.25047 0.0744,-1.1654 -5.15016,4.27425 -5.91001,31.99292 -1.20675,44.0209 0.59438,1.52005 1.29114,-2.47205 1.04721,-6 z m -1.79897,-25.06667 c -0.23726,-0.61829 -0.28139,-1.27417 -0.0981,-1.4575 0.18333,-0.18334 0.52745,0.17254 0.76472,0.79084 0.23726,0.61829 0.28138,1.27417 0.0981,1.4575 -0.18334,0.18333 -0.52746,-0.17254 -0.76472,-0.79084 z m -20.67814,28.9 c -0.16731,-0.825 -1.11518,-4.2 -2.10637,-7.5 -1.46727,-4.88501 -1.80712,-7.34784 -1.82883,-13.25304 -0.0278,-7.56156 -0.79542,-7.73759 -1.52183,-0.34896 -0.45513,4.62929 0.34343,8.87392 3.15475,16.76867 2.02448,5.68514 2.91722,7.36544 2.30228,4.33333 z m 15.59682,-4.91101 c -0.46399,-2.45902 -0.8755,-9.83237 -0.91448,-16.38522 -0.0398,-6.68697 -0.28308,-10.95404 -0.55455,-9.72568 -0.26602,1.20372 -0.63865,2.93858 -0.82807,3.85525 -0.53503,2.58929 -0.56976,11.33801 -0.0582,14.66666 0.25357,1.65 0.56053,3.75 0.68214,4.66667 0.45237,3.40988 1.16341,7.01692 1.48718,7.54435 0.87105,1.41895 0.95099,-0.56769 0.186,-4.62203 z m 19.40282,-7.50505 c -0.4599,-3.5295 -0.96863,-7.91727 -1.13052,-9.7506 -0.16188,-1.83334 -0.39865,-3.63533 -0.52614,-4.00443 -0.1275,-0.36909 -0.0308,-2.86441 0.21495,-5.54515 0.24572,-2.68074 0.21708,-5.01602 -0.0636,-5.18951 -0.92654,-0.57263 -1.60334,3.69182 -2.2878,14.41518 -0.40604,6.36128 -0.28471,7.57498 1.31212,13.12545 0.96774,3.36381 1.79556,6.80957 1.83959,7.65724 0.0483,0.92919 0.35755,0.38323 0.77884,-1.37485 0.50682,-2.115 0.46908,-4.67892 -0.1374,-9.33333 z m 37.73524,9.08918 c 3.7326,-2.68055 4.68325,-4.48216 5.65154,-10.71048 0.65777,-4.23094 0.59497,-5.65156 -0.45047,-10.18951 -0.66814,-2.90022 -1.76448,-6.06944 -2.43631,-7.04271 -0.67183,-0.97327 -1.2215,-2.09827 -1.2215,-2.5 0,-0.40173 -0.3,-0.73042 -0.66667,-0.73042 -0.36667,0 -0.66667,-0.45 -0.66667,-1 0,-0.55 -0.29058,-1 -0.64574,-1 -0.70595,0 -0.45922,0.89608 1.41544,5.1406 2.25545,5.10667 3.13482,11.05668 2.48824,16.83594 -0.83149,7.43197 -2.40059,10.69013 -5.14826,10.69013 -1.23808,0 -1.33073,-0.20851 -0.75984,-1.71007 0.35759,-0.94053 0.62077,-3.11553 0.58485,-4.83333 l -0.0653,-3.12327 -0.89358,4.33334 c -0.96614,4.68523 -1.20845,8 -0.58478,8 0.21506,0 1.74464,-0.9721 3.39906,-2.16022 z m -20.37341,-7.30264 c 0.0458,-1.02876 0.13925,-2.09548 0.2076,-2.37048 1.00484,-4.04327 1.01336,-10.70331 0.0207,-16.21274 -0.62302,-3.45799 -1.37457,-6.54881 -1.67012,-6.86849 -0.29555,-0.31969 -0.36665,-1.06969 -0.158,-1.66667 0.28895,-0.82676 0.18536,-0.90688 -0.43466,-0.3362 -1.07353,0.98809 -1.21024,7.85143 -0.1811,9.09147 0.44304,0.53382 0.97746,3.78805 1.18762,7.23161 0.36186,5.92954 0.0333,8.44166 -2.08336,15.92769 -0.41044,1.45162 -0.24549,1.37039 1.27835,-0.62952 0.96228,-1.2629 1.7871,-3.1379 1.83293,-4.16667 z m 13.25494,-1.72882 c 0.73062,-1.93875 1.32839,-4.13348 1.32839,-4.87716 0,-1.91712 1.20745,-3.93116 2.35679,-3.93116 0.5371,0 0.98114,0.525 0.98676,1.16666 0.006,0.64167 0.29604,1.61667 0.64539,2.16667 0.41776,0.6577 0.51587,-0.8256 0.28663,-4.33333 -0.19171,-2.93334 -0.634,-5.43396 -0.98288,-5.55694 -0.34888,-0.12299 -0.48617,-0.46334 -0.30508,-0.75634 0.55275,-0.89438 -1.21387,-5.02649 -3.17319,-7.42206 -1.01873,-1.24557 -2.316,-2.86467 -2.88281,-3.598 -1.17785,-1.52388 -1.24179,-1.926 1.01142,6.36072 0.65213,2.3984 1.2499,6.78929 1.32836,9.75754 0.14276,5.40053 -1.07279,9.83289 -4.29226,15.65127 -1.48707,2.68751 -1.12844,3.13659 0.71645,0.89714 0.9062,-1.1 2.24541,-3.58625 2.97603,-5.52501 z m -62.17981,1.42214 c -1.29374,-5.14154 -1.38394,-14.8964 -0.2179,-23.5638 0.51795,-3.85 0.84811,-7.0951 0.73369,-7.21133 -0.41424,-0.42082 -1.67073,4.30824 -2.27027,8.54467 -1.21362,8.57546 0.33358,28.5291 2.07695,26.78573 0.43308,-0.43307 0.3228,-1.99084 -0.32247,-4.55527 z m 42.51237,-8.23046 c 0.17708,-2.38334 0.49184,-5.60746 0.69945,-7.16471 0.20762,-1.55726 0.18362,-3.14507 -0.0533,-3.52847 -0.23696,-0.38341 -0.52957,-2.31511 -0.65025,-4.29269 -0.56194,-9.20815 -3.10505,-5.94838 -3.36963,4.3192 -0.0898,3.48333 0.14433,6.90896 0.52019,7.6125 0.65293,1.22213 0.85918,2.77038 1.16175,8.72083 l 0.13559,2.66667 0.61713,-2 c 0.33942,-1.1 0.76201,-3.95 0.9391,-6.33333 z m 25.43735,3.16666 c -0.18494,-0.45833 -0.33625,-0.0833 -0.33625,0.83334 0,0.91666 0.15131,1.29166 0.33625,0.83333 0.18495,-0.45833 0.18495,-1.20833 0,-1.66667 z m -10.66666,-10 c -0.18494,-0.45833 -0.33626,-0.0833 -0.33626,0.83334 0,0.91666 0.15132,1.29166 0.33626,0.83333 0.18494,-0.45833 0.18494,-1.20833 0,-1.66667 z m 0.40333,-2.00276 c 0.48485,-1.26348 -0.97396,-8.49724 -1.71361,-8.49724 -0.38475,0 -0.47444,1.25029 -0.22186,3.09305 0.23317,1.70118 0.42395,3.80118 0.42395,4.66667 0,1.66829 0.9723,2.14271 1.51152,0.73752 z m -96.73426,-6.3004 c -0.31439,-2.69303 -0.94283,-3.56453 -3.45768,-4.79499 -1.58384,-0.77494 -1.59719,-0.76421 -0.31958,0.25674 0.73334,0.58601 1.25834,1.20256 1.16667,1.37011 -0.46459,0.84918 -0.0716,1.65791 0.60301,1.24097 0.45533,-0.28141 0.58952,-0.18419 0.32856,0.23805 -0.51707,0.83664 0.61573,4.15895 1.41806,4.15895 0.30212,0 0.41955,-1.11142 0.26096,-2.46983 z m 47.19267,-2.72994 c 0.0165,-0.47655 0.43797,-1.67655 0.93651,-2.66667 1.23875,-2.46021 2.05661,-6.00155 1.18557,-5.13356 -0.78769,0.78493 -4.11664,10.50025 -4.03786,11.78421 0.0639,1.04169 1.87185,-2.71802 1.91578,-3.98398 z m -6.84785,-6.92523 c -0.21282,-0.53182 -0.37079,-0.37385 -0.40278,0.40278 -0.029,0.70277 0.12862,1.09652 0.35015,0.875 0.22152,-0.22153 0.24521,-0.79653 0.0526,-1.27778 z m -19.19139,-17.13284 c -0.0233,-2.79152 0.25806,-6.03757 0.62533,-7.21344 0.36727,-1.17587 0.58491,-2.67587 0.48364,-3.33334 -0.10128,-0.65746 -0.002,-1.34792 0.22144,-1.53436 0.80345,-0.67153 4.06016,-7.32704 3.57204,-7.29994 -0.27489,0.0153 -1.65667,1.04961 -3.07062,2.29854 -2.23098,1.9706 -2.68174,2.87026 -3.40988,6.80558 -0.94897,5.12879 -1.29489,10.30396 -1.07871,16.13812 0.0576,1.55519 0.099,1.56747 1.37931,0.40883 1.10393,-0.99904 1.31296,-2.02499 1.27745,-6.26999 z m -12.94874,3.22863 c -0.23653,-0.38272 -0.0795,-1.11833 0.34907,-1.63467 0.43818,-0.52797 0.57791,-1.57282 0.31931,-2.38762 -0.32705,-1.03044 -0.23104,-1.3074 0.3325,-0.95912 0.51758,0.31989 0.738,0.0599 0.63563,-0.74984 -0.0862,-0.68175 0.0394,-1.76454 0.27909,-2.40621 0.93799,-2.51113 1.03886,-3.16667 0.48725,-3.16667 -0.86989,0 -2.50119,4.569 -3.0348,8.5 -0.3357,2.47301 -0.24959,3.5 0.29346,3.5 0.42271,0 0.57503,-0.31314 0.33849,-0.69587 z m 60.058,-7.56065 c 0.8468,-2.47848 0.69717,-2.60587 -3.37328,-2.87173 -8.89012,-0.58064 -8.97393,-0.53344 -8.98979,5.06359 l -0.0102,3.60201 1.33333,-1.53735 C 175.4,363.15447 176,362.09067 176,361.636 c 0,-1.04063 1.68129,-1.71644 3.00575,-1.2082 0.91397,0.35073 1.49103,1.65927 1.88661,4.27809 0.44615,2.9536 1.39231,2.84729 2.84743,-0.31994 0.81676,-1.77777 1.70183,-3.86687 1.96682,-4.64246 z m -42.03323,4.93407 c -0.19159,-0.31002 -0.11065,-0.66429 0.17988,-0.78727 2.01676,-0.85372 6.75846,-12.36114 5.7595,-13.9775 -0.30425,-0.49228 -0.19816,-0.6079 0.28423,-0.30977 1.15106,0.71139 0.92823,-0.31675 -0.39699,-1.83178 -0.64167,-0.73356 -0.79167,-1.11448 -0.33334,-0.84648 0.53298,0.31165 0.83334,0.0726 0.83334,-0.66318 0,-0.63275 -0.18945,-0.96101 -0.42099,-0.72947 -0.23155,0.23155 -1.01775,0.10162 -1.74712,-0.28873 -0.95617,-0.51173 -1.19972,-0.50519 -0.873,0.0235 0.24922,0.40325 0.11042,0.73318 -0.30844,0.73318 -0.41886,0 -0.62934,0.375 -0.46773,0.83334 0.16161,0.45833 -0.21887,1.58333 -0.8455,2.5 -1.13769,1.66427 -1.78679,4.06266 -2.40671,8.89265 -0.25405,1.97931 -0.13231,2.44133 0.53716,2.0387 0.66829,-0.40193 0.69567,-0.30145 0.1201,0.44068 -0.912,1.1759 -1.08591,5.47518 -0.19932,4.92723 0.34831,-0.21526 0.47653,-0.64504 0.28493,-0.95505 z m 9.69306,-2.36133 c 2.17578,-1.12514 2.4024,-2.49681 1.03691,-6.27597 -1.21463,-3.36161 -2.18006,-3.20752 -2.6996,0.43087 -0.25097,1.75755 -0.59126,4.02055 -0.75621,5.02888 -0.34813,2.12821 -0.20901,2.17516 2.4189,0.81622 z m -21.54442,-3.16991 c 0.41488,-1.54713 0.95675,-3.33797 1.20415,-3.97964 0.2474,-0.64167 0.17749,-1.16667 -0.15534,-1.16667 -0.79854,0 -3.5375,5.67555 -3.5375,7.33025 0,2.26676 1.69376,0.78041 2.48869,-2.18394 z m -20.62231,-4.7815 C 112.82377,350.7527 116,342.14181 116,341.35101 c 0,-1.42589 -2.40879,1.07515 -3.4003,3.53053 -0.47051,1.16516 -1.51447,3.16847 -2.31992,4.45181 -0.80546,1.28333 -1.6523,3.61361 -1.88188,5.17841 -0.39583,2.69798 -0.35006,2.80301 0.88538,2.03146 0.71653,-0.44748 1.57893,-1.42776 1.91643,-2.1784 z m -6.19909,-7.6924 c 0.40282,-3.79611 1.82528,-14.12411 3.30627,-24.00574 0.84849,-5.66131 3.65987,-14.50672 9.00535,-28.33334 4.55813,-11.79007 4.87153,-12.46245 7.8491,-16.83981 C 126.7226,275.1983 128,273.04632 128,272.71135 c 0,-0.33497 0.77666,-1.53206 1.72593,-2.66019 0.94926,-1.12813 1.53484,-2.05115 1.3013,-2.05115 -0.23354,0 0.45882,-1.275 1.53858,-2.83333 2.08411,-3.00783 10.27435,-11.08838 17.39968,-17.16667 2.36406,-2.01667 6.44452,-5.6993 9.06769,-8.18362 2.97065,-2.81342 5.1369,-4.37593 5.74382,-4.14304 1.52822,0.58644 6.79824,-6.08877 11.60659,-14.70134 1.89048,-3.38617 1.95588,-3.72709 0.61641,-3.21309 -0.55,0.21106 -1,0.89171 -1,1.51256 0,2.13663 -24.36719,26.88835 -29.26668,29.72853 C 144.41268,250.34526 136,257.50324 136,258.13253 c 0,0.35694 -0.91568,1.61978 -2.03483,2.8063 -3.03555,3.21826 -11.07153,15.45156 -13.39703,20.39451 -1.12129,2.38334 -2.75428,5.85479 -3.62888,7.71435 -0.8746,1.85956 -1.81872,3.60956 -2.09805,3.88889 -0.27934,0.27933 -0.51135,0.70788 -0.51559,0.95232 -0.004,0.24444 -0.34732,1.34444 -0.76239,2.44444 -2.34914,6.22562 -5.50276,17.16133 -5.86369,20.33334 -0.22946,2.01667 -0.55057,4.41667 -0.71356,5.33333 -0.16299,0.91667 -0.46572,2.71667 -0.67273,4 -0.20701,1.28334 -0.78812,4.13334 -1.29136,6.33334 -1.18218,5.16812 -2.0622,20.4012 -1.09797,19.00574 0.37786,-0.54684 0.86237,-2.64684 1.0767,-4.66667 z m 103.8118,3.9806 c 0.99684,-0.46639 1.68575,-1.05295 1.53092,-1.30347 -0.15483,-0.25052 0.37958,-0.40554 1.18757,-0.34448 0.808,0.0611 2.45321,-0.44011 3.65603,-1.11369 1.20282,-0.67359 2.59458,-1.2247 3.09281,-1.2247 0.49823,0 1.58041,-0.54621 2.40486,-1.21381 l 1.49899,-1.21381 -2.53529,-1.20307 c -1.39442,-0.6617 -3.31073,-1.25757 -4.25847,-1.32416 -1.55546,-0.10929 -9.03981,-2.25948 -16.57981,-4.76324 -4.93324,-1.63814 -13.57595,-0.87156 -15.19901,1.34811 -0.83817,1.14626 -3.30935,1.39744 -3.92636,0.3991 -0.63048,-1.02014 -2.19692,-0.0684 -2.61247,1.58724 -1.14338,4.55559 -1.04559,6.05281 0.51002,7.80846 1.47898,1.66917 3.79928,3.24185 4.78296,3.24185 0.24905,0 0.31057,-0.96923 0.13671,-2.15384 -0.37814,-2.5764 1.32945,-8.01303 2.40472,-7.6562 0.41804,0.13872 0.97079,2.13846 1.22835,4.44387 0.25756,2.3054 0.61734,4.34068 0.79951,4.52285 1.61024,1.61024 18.51551,1.73619 21.87796,0.16299 z m -34.14496,-13.32117 c 0.42564,-0.79532 0.61929,-1.60063 0.43034,-1.78959 -0.70276,-0.70276 -5.12933,3.35972 -5.49567,5.04363 -0.20909,0.9611 -0.49025,2.10826 -0.62479,2.54924 -0.13454,0.44099 0.5602,1.38807 1.54388,2.10462 l 1.78849,1.30283 0.79193,-3.88235 c 0.43556,-2.13529 1.14018,-4.53307 1.56582,-5.32838 z m -26.22302,6.36416 c 0,-0.53388 -0.25489,-0.81315 -0.56643,-0.62061 -0.31154,0.19254 -0.39383,0.62935 -0.18288,0.97068 0.53909,0.87225 0.74931,0.77404 0.74931,-0.35007 z m 19.52549,-4.11437 c 0.0165,-0.7801 0.48732,-1.79785 1.04618,-2.26166 0.55886,-0.46382 0.88219,-0.97722 0.71851,-1.1409 -0.44932,-0.44932 -5.05059,2.8328 -6.12819,4.37128 -0.85686,1.22335 -0.77433,1.48301 0.88659,2.78949 l 1.8314,1.44059 0.80772,-1.89022 c 0.44424,-1.03961 0.82125,-2.52847 0.83779,-3.30858 z m -54.65142,-1.74829 c 0.008,-0.275 0.68982,-0.52369 1.51482,-0.55264 0.825,-0.0289 1.125,-0.20394 0.66667,-0.38888 -1.4999,-0.60523 -0.88402,-3.32618 2.41411,-10.66539 1.78609,-3.97453 3.4563,-7.90143 3.71159,-8.72643 0.25528,-0.825 0.77603,-1.5 1.15721,-1.5 0.38119,0 0.50617,-0.48707 0.27772,-1.08238 -0.38003,-0.99036 6.58236,-23.04256 7.76184,-24.58429 1.45026,-1.89566 5.47939,-8.319 6.6268,-10.5646 1.33155,-2.60598 1.02135,-4.47901 -0.3608,-2.17849 -0.41533,0.69131 -1.95514,3.09131 -3.42181,5.33334 -1.46666,2.24203 -2.76572,4.52358 -2.88678,5.07011 -0.12107,0.54653 -0.4381,1.14653 -0.70452,1.33334 -0.26642,0.1868 -0.89523,1.38964 -1.39736,2.67297 -0.50213,1.28333 -1.76565,4.22799 -2.80784,6.54367 -1.04218,2.31569 -1.69296,4.53704 -1.44618,4.93634 0.24678,0.3993 0.14608,0.53898 -0.22378,0.31039 -0.79571,-0.49177 -4.17094,7.74999 -4.38569,10.70912 -0.0813,1.12048 -0.34767,1.91432 -0.5919,1.76409 -0.24424,-0.15023 -1.10917,1.754 -1.92208,4.23162 -0.8129,2.47763 -1.69059,4.80477 -1.95041,5.17144 -1.41539,1.99743 -4.70012,12.45668 -4.66863,14.86586 0.0117,0.89151 0.29372,0.77759 1.31851,-0.53253 0.71702,-0.91666 1.31035,-1.89166 1.31851,-2.16666 z m 24.01482,-6.18061 c 1.65,-1.96812 3.50965,-3.76047 4.13256,-3.983 1.04729,-0.37413 1.03914,-0.49802 -0.1082,-1.64537 -1.12579,-1.12578 -1.15623,-1.47787 -0.32849,-3.79923 1.44403,-4.04977 1.12768,-4.61257 -1.02125,-1.8168 -1.09562,1.42542 -2.24176,2.89635 -2.54697,3.26874 -0.30521,0.37238 -0.91002,1.69568 -1.34402,2.94065 -0.43401,1.24498 -1.47303,3.1903 -2.30894,4.32294 -1.38921,1.88234 -3.14136,5.30056 -3.14136,6.1284 0,0.99285 4.05632,-2.3027 6.66667,-5.41633 z M 102.92392,312.8028 c 0.63921,-2.30847 2.52415,-7.10847 4.18876,-10.66667 1.6646,-3.5582 3.91746,-8.71945 5.00634,-11.46945 1.08888,-2.75 3.75755,-8.40587 5.93038,-12.56859 4.18717,-8.02181 4.51612,-8.93991 2.99384,-8.35576 -0.89998,0.34536 -6.37658,10.72948 -6.37658,12.09056 0,1.0351 -2.47064,3.56098 -3.28326,3.35666 -0.41462,-0.10424 -1.613,1.92478 -2.66308,4.50894 -1.05008,2.58417 -2.54061,5.73417 -3.31229,7.00001 -0.77168,1.26583 -1.40417,2.63987 -1.40554,3.05343 -10e-4,0.41355 -0.51121,1.91355 -1.13298,3.33333 -1.86963,4.2692 -2.64942,7.95614 -2.76334,13.06531 -0.10129,4.5426 -0.0523,4.7229 0.77371,2.84944 0.48501,-1.1 1.40483,-3.88874 2.04404,-6.19721 z m 18.18206,-15.13612 c 1.02526,-2.2 1.80618,-4.19396 1.73539,-4.43102 -0.0708,-0.23707 1.66093,-3.76331 3.84829,-7.8361 2.18735,-4.07279 3.977,-7.58947 3.977,-7.81484 0,-0.3721 4.05196,-5.61115 7.83252,-10.1272 0.82455,-0.98496 1.50216,-2.09084 1.50578,-2.45751 0.008,-0.80411 4.52849,-5.66667 5.26809,-5.66667 0.748,0 5.23392,-4.45593 6.08287,-6.04221 0.78081,-1.45895 -2.81294,1.09991 -9.15884,6.52138 -4.52274,3.8639 -10.1092,11.49369 -14.53702,19.85417 -0.97095,1.83333 -2.16552,3.78333 -2.65458,4.33333 -1.50643,1.69412 -4.85446,9.37904 -6.68016,15.33333 -0.95563,3.11667 -2.01977,6.35579 -2.36475,7.19804 -0.34498,0.84225 -0.60424,1.89225 -0.57613,2.33333 0.048,0.7527 1.23329,-1.56717 5.72154,-11.19803 z m 12.77013,6.32083 c 1.16814,-1.69435 2.12389,-3.3047 2.12389,-3.57855 0,-0.27385 0.78514,-1.52729 1.74477,-2.78542 1.16298,-1.52475 1.61813,-2.77177 1.365,-3.73977 -0.26062,-0.9966 0.89336,-3.87311 3.67797,-9.168 2.23175,-4.24367 4.49448,-8.21919 5.02828,-8.8345 0.65731,-0.75767 0.77364,-1.47057 0.36046,-2.20889 -0.51336,-0.91733 -0.87771,-0.68575 -2.29824,1.46082 -0.92848,1.40304 -1.89805,3.2123 -2.15459,4.02058 -0.25654,0.80829 -1.74058,3.20435 -3.29788,5.32459 -2.4069,3.27697 -3.55912,5.21113 -4.08365,6.85497 -0.75615,2.36976 -2.62039,6 -3.08118,6 -0.32685,0 -0.59428,0.6 -0.59428,1.33334 0,0.73333 -0.3,1.33333 -0.66666,1.33333 -0.36667,0 -0.66667,0.4649 -0.66667,1.03311 0,0.56821 -0.4368,1.87779 -0.97068,2.91018 -0.53387,1.0324 -1.11379,2.66637 -1.28872,3.63104 -0.31165,1.71864 -0.28789,1.73121 1.18012,0.62389 0.82399,-0.62155 2.45392,-2.51637 3.62206,-4.21072 z M 95.78874,293.20834 c -0.212817,-0.53182 -0.370788,-0.37385 -0.402777,0.40278 -0.02895,0.70278 0.128618,1.09653 0.350146,0.875 0.221528,-0.22153 0.245212,-0.79653 0.05263,-1.27778 z M 145,293.33334 c -0.22662,-0.36666 0.0355,-0.66666 0.58239,-0.66666 0.54693,0 1.19946,-0.675 1.45006,-1.5 0.2506,-0.825 1.18743,-2.47677 2.08184,-3.67059 0.89442,-1.19383 1.4373,-2.47626 1.20641,-2.84985 -0.2309,-0.3736 -0.0361,-0.59683 0.43277,-0.49608 0.46892,0.10075 0.86622,-0.16682 0.88289,-0.59459 0.0167,-0.42778 0.2553,-1.00278 0.5303,-1.27778 0.73964,-0.73964 0.60707,-1.75598 -0.16666,-1.27778 -0.95415,0.58969 -0.82278,-0.082 0.21998,-1.12474 0.9673,-0.96731 2.03962,-6.11439 1.16067,-5.57117 -0.29721,0.18368 -0.93847,1.31541 -1.42503,2.51494 -0.48656,1.19953 -2.01989,4.05189 -3.40741,6.33858 -3.9894,6.57471 -5.50173,10.84239 -3.8422,10.84239 0.3883,0 0.5206,-0.3 0.29399,-0.66667 z m 21.83996,-3.33333 c 3.5611,-2.39624 3.42813,-2.51557 -2.3244,-2.08596 -0.90594,0.0677 -3.8489,4.61206 -3.8489,5.94332 0,0.26286 0.7026,-0.17615 6.1733,-3.85736 z m -70.506629,1.33333 c -0.226613,-0.36666 -0.103733,-0.66666 0.273065,-0.66666 0.376799,0 0.512407,-0.45 0.301353,-1 -0.211055,-0.55 -0.07548,-1 0.301286,-1 0.376762,0 0.893501,-0.975 1.148308,-2.16667 0.254806,-1.19167 0.687697,-2.46667 0.961978,-2.83333 0.274281,-0.36667 0.439786,-1.34152 0.367788,-2.16634 -0.072,-0.82482 0.02688,-1.3419 0.219724,-1.14905 0.542677,0.54267 5.536707,-10.30028 5.082547,-11.03513 -0.6876,-1.11256 -1.65605,-0.71265 -1.65605,0.68385 0,0.73333 -0.28058,1.33333 -0.62351,1.33333 -0.34294,0 -1.0032,1.05 -1.46726,2.33334 -0.46406,1.28333 -1.308481,2.35701 -1.876488,2.38596 -0.790516,0.0403 -0.819593,0.1374 -0.123973,0.41404 0.612856,0.24372 0.672501,0.50742 0.183174,0.80984 -0.399077,0.24664 -0.808023,1.18533 -0.908768,2.08597 -0.100746,0.90064 -0.575427,2.0512 -1.054848,2.55681 -0.47942,0.50561 -0.713835,1.33061 -0.520923,1.83334 0.192913,0.50272 0.108775,0.91404 -0.186973,0.91404 -0.295748,0 -0.578686,1.0896 -0.628751,2.42134 -0.05007,1.33174 -0.268891,2.98174 -0.486278,3.66667 -0.226256,0.71287 -0.07418,1.24532 0.355685,1.24532 0.413015,0 0.565526,-0.3 0.338914,-0.66667 z m 8.906379,-3.92428 c 10.82418,-17.84181 12.7426,-20.00042 27.61787,-31.07572 3.15292,-2.34748 11.93787,-10.68923 10.47575,-9.94724 -1.27126,0.64514 -6.89123,4.40278 -7.33333,4.90324 -0.18334,0.20754 -1.68334,1.05088 -3.33334,1.8741 -1.65,0.82322 -4.90512,2.69822 -7.2336,4.16667 -2.32848,1.46844 -4.35005,2.6699 -4.49238,2.6699 -1.85174,0 -11.60735,11.47822 -11.60735,13.65693 0,0.51208 -0.30429,1.11911 -0.67619,1.34896 -1.12141,0.69307 -3.4314,5.69093 -5.08143,10.99411 -2.36156,7.59001 -2.17941,7.74425 1.664,1.40905 z m 51.81645,1.01132 2.35185,-2.74762 -1.44453,-1.16971 c -0.79449,-0.64334 -1.67208,-1.16971 -1.9502,-1.16971 -0.40598,0 -4.01328,7.47373 -4.01328,8.31487 0,0.12484 0.60846,0.0679 1.35215,-0.12662 0.74368,-0.19448 2.41048,-1.59002 3.70401,-3.10121 z M 140,275.33334 c 0,-0.36666 -0.1323,-0.66666 -0.29399,-0.66666 -0.1617,0 -0.4794,0.3 -0.70601,0.66666 -0.22662,0.36667 -0.0943,0.66667 0.29399,0.66667 0.3883,0 0.70601,-0.3 0.70601,-0.66667 z m 12.73322,-6.18383 c 3.28581,-5.08379 3.32718,-6.24352 0.10011,-2.80639 -4.31547,4.59639 -4.87935,5.42792 -4.44622,6.55665 0.58759,1.53123 1.36747,0.85827 4.34611,-3.75026 z m -50.57412,-6.5495 c 1.38075,-1.98456 4.15314,-4.39577 7.85691,-6.83333 3.14781,-2.07167 5.93918,-3.76667 6.20305,-3.76667 0.26386,0 1.90602,-0.975 3.64925,-2.16667 7.26984,-4.96964 13.02857,-6.41407 10.88771,-2.73091 -0.39351,0.677 -0.7246,1.01073 -0.73575,0.74161 -0.0662,-1.59791 -9.92384,5.09229 -22.43976,15.22947 -0.50262,0.40708 -0.91385,1.09979 -0.91385,1.53934 0,0.43955 -0.28494,0.62308 -0.63321,0.40783 -0.34827,-0.21524 -0.97756,0.25205 -1.39842,1.03843 -0.60082,1.12266 -0.5633,1.63168 0.17468,2.36966 0.80872,0.80872 1.27202,0.56988 3.32015,-1.7116 1.30915,-1.45831 2.21549,-2.81625 2.01409,-3.01765 -0.20139,-0.2014 0.13383,-0.36618 0.74494,-0.36618 0.61111,0 1.11111,-0.28127 1.11111,-0.62506 0,-0.34378 1.5,-1.44146 3.33333,-2.43928 1.83333,-0.99783 3.33333,-2.06655 3.33333,-2.37494 0,-0.3084 0.45,-0.56072 1,-0.56072 0.55,0 1,-0.3 1,-0.66666 0,-0.36667 0.40499,-0.66667 0.89998,-0.66667 0.49498,0 2.14239,-0.9 3.66089,-2 1.51851,-1.1 2.99685,-2 3.2852,-2 0.28835,0 1.0118,-0.525 1.60767,-1.16667 0.59586,-0.64166 2.17861,-1.91666 3.51721,-2.83333 1.33861,-0.91667 3.09276,-2.20065 3.89811,-2.8533 1.43945,-1.16651 1.39647,-1.18458 -2.53572,-1.066 -6.33997,0.19119 -7,0.0616 -7,-1.3748 0,-0.97558 0.69738,-1.45486 2.83333,-1.94722 l 2.83333,-0.65312 L 131,240.08613 c -3.51569,-0.0256 -8.96396,-1.45597 -11.22593,-2.94716 -0.99645,-0.65691 -2.14961,-0.98555 -2.56258,-0.73033 -0.45847,0.28336 -0.56562,0.16435 -0.27515,-0.30563 0.27788,-0.44962 0.0646,-0.76967 -0.51296,-0.76967 -0.54375,0 -1.68646,-0.92541 -2.53934,-2.05647 -0.85289,-1.13106 -2.79521,-3.44506 -4.31626,-5.14223 l -2.76554,-3.08576 -3.57651,3.64223 c -4.444187,4.52587 -6.666864,7.61149 -6.039369,8.38415 0.264167,0.32528 0.209331,0.37044 -0.121857,0.10037 -0.709821,-0.57885 -3.849325,3.42719 -3.336346,4.25721 0.192791,0.31194 0.01512,0.56717 -0.394827,0.56717 -0.409946,0 -0.559946,0.3 -0.333333,0.66667 0.226612,0.36666 0.133306,0.66666 -0.207348,0.66666 -0.795186,0 -2.383364,5.61708 -1.917734,6.78265 0.230644,0.57736 0.37141,0.46921 0.405783,-0.31174 0.02895,-0.65767 0.802632,-2.00461 1.719299,-2.99319 0.916666,-0.98858 1.666666,-2.04692 1.666666,-2.35186 0,-0.91347 4.497285,-4.45919 5.655916,-4.45919 0.57617,0 -0.429417,3.50583 -1.464266,5.10493 -0.627048,0.96895 -0.701406,1.58002 -0.227874,1.87268 0.612488,0.37854 0.975031,-0.39884 0.807982,-1.73251 -0.106931,-0.85371 2.253808,-0.21105 3.032018,0.8254 0.65316,0.8699 0.43301,1.83049 -1.17482,5.12611 -1.1264,2.30882 -2.414683,6.58555 -2.991074,9.9295 -0.55686,3.23064 -1.168065,6.47389 -1.358234,7.20722 -0.412469,1.59058 1.843617,-0.89079 5.212788,-5.73333 z m 79.17423,-5.34536 c 0,-0.36666 -0.3,-0.48125 -0.66667,-0.25464 C 180.3,257.22662 180,257.71203 180,258.0787 c 0,0.36667 0.3,0.48126 0.66666,0.25464 0.36667,-0.22661 0.66667,-0.71202 0.66667,-1.07869 z m -38.66667,-22.49694 c 0,-1.12125 5.91833,-6.70171 7.14321,-6.73542 0.44544,-0.0122 1.12933,-0.61918 1.51977,-1.34871 0.39043,-0.72954 1.6108,-1.79232 2.71192,-2.36173 1.10112,-0.56941 1.82664,-1.31908 1.61228,-1.66593 -0.22132,-0.35809 0.10051,-0.44251 0.74465,-0.19533 0.96709,0.37111 1.06253,0.14894 0.6471,-1.50626 -0.26802,-1.06788 -0.59824,-2.05252 -0.73383,-2.18811 -0.13558,-0.13559 -2.8862,0.0549 -6.11247,0.4233 -3.84644,0.43921 -7.47259,0.44695 -10.53263,0.0225 -2.56666,-0.35604 -5.41666,-0.73809 -6.33333,-0.84901 -0.91667,-0.11092 -2.98846,-0.68892 -4.60399,-1.28444 -1.61553,-0.59553 -3.06546,-0.95464 -3.22208,-0.79803 -0.35874,0.35874 5.69448,3.06282 6.85629,3.06282 1.75698,0 2.96978,0.84589 2.96978,2.07133 0,1.50227 -0.61802,1.54511 -5.18805,0.35966 -3.20486,-0.83133 -3.47862,-0.81121 -3.47862,0.25558 0,0.63686 0.6269,1.32186 1.39311,1.52223 1.03893,0.27169 1.28502,0.70486 0.96796,1.70382 -0.52245,1.64608 1.24535,2.74956 4.42844,2.76426 2.79584,0.0129 3.66355,0.57326 4.20049,2.7126 0.30283,1.20655 0.0846,1.9891 -0.74178,2.65999 -0.74134,0.60185 -0.98718,0.64484 -0.67018,0.1172 0.27536,-0.45833 0.22045,-0.83333 -0.12203,-0.83333 -0.34247,0 -1.55541,-0.18655 -2.69543,-0.41456 l -2.07275,-0.41455 1.0388,2.08233 c 1.02494,2.05454 1.10039,2.08056 5.65609,1.95038 3.55947,-0.10171 4.61728,-0.3566 4.61728,-1.11257 z M 128,230.33334 c -2.19106,-1.25252 -3.27403,-1.26663 -1.62742,-0.0212 0.71174,0.53834 1.74408,0.97771 2.29408,0.97638 0.57996,-0.001 0.29994,-0.40262 -0.66666,-0.95518 z m -31.619313,-5.32333 c 0.528674,-1.1055 2.312233,-3.36 3.963463,-5.01 3.14971,-3.14736 5.46759,-6.66667 4.39078,-6.66667 -1.19623,0 -4.795043,3.50415 -6.077046,5.9172 -0.706006,1.32887 -2.318454,3.75926 -3.583218,5.40085 -1.264764,1.6416 -2.156263,3.2166 -1.981108,3.5 0.175154,0.28341 7.57e-4,0.51529 -0.387549,0.51529 -0.388306,0 -0.706011,0.35229 -0.706011,0.78287 0,1.18164 3.284185,-2.14666 4.380689,-4.43954 z m -4.27304,-5.11765 c 0.700874,-0.70088 1.095669,-1.56338 0.877322,-1.91667 -0.218347,-0.35329 -0.108636,-0.64235 0.243801,-0.64235 0.352437,0 1.015192,-0.975 1.47279,-2.16666 3.093684,-8.05651 2.883317,-7.16667 1.694272,-7.16667 -1.023163,0 -7.09868,13.65539 -7.009869,15.75545 0.03584,0.84743 0.27515,0.63297 0.75,-0.67212 0.383552,-1.05416 1.27081,-2.49011 1.971684,-3.19098 z m 32.378463,0.37154 c -0.22153,-0.22153 -0.79653,-0.24521 -1.27778,-0.0526 -0.53182,0.21281 -0.37385,0.37078 0.40278,0.40277 0.70278,0.029 1.09653,-0.12861 0.875,-0.35014 z m 27.89771,-5.28086 c 2.5389,-0.26472 5.25492,-0.81919 6.0356,-1.23217 l 1.41942,-0.75086 -1.57716,-2.47057 c -1.17766,-1.84474 -2.29715,-2.66608 -4.41943,-3.24242 -1.56324,-0.42452 -4.17559,-1.18943 -5.80522,-1.6998 -3.13973,-0.98331 -3.61877,-0.80893 -4.34057,1.58011 -0.42374,1.40249 -0.3336,1.45512 1.3777,0.80448 1.5245,-0.57961 2.05529,-0.47197 3.17016,0.64289 1.17408,1.17408 1.23183,1.53943 0.46874,2.96529 -0.47868,0.89442 -0.63859,2.00117 -0.35536,2.45946 0.31309,0.50657 0.24285,0.66505 -0.17916,0.40424 -0.38177,-0.23595 -1.10313,0.0739 -1.60301,0.68848 -0.78345,0.96328 -0.76391,1.0633 0.14162,0.72483 0.57777,-0.21596 3.12777,-0.60924 5.66667,-0.87396 z m -25.24489,-5.95222 c -0.75128,-1.63305 -1.64702,-2.79548 -1.99054,-2.58318 -0.36082,0.223 -0.43754,-0.20327 -0.18168,-1.00943 0.41308,-1.30149 0.30569,-1.3476 -1.59524,-0.68493 -1.12098,0.39077 -2.03814,0.96028 -2.03814,1.26558 0,0.30529 -0.64436,0.65095 -1.43191,0.76811 -1.44073,0.21435 -3.16286,2.17383 -2.49631,2.84037 0.19687,0.19688 1.23626,0.47182 2.30975,0.61099 1.07349,0.13917 2.4018,0.41871 2.9518,0.6212 2.30769,0.84963 3.07253,1.03791 4.41912,1.08785 l 1.41911,0.0526 z m 34.29017,-2.89631 c -1.35577,-1.904 -7.18962,-5.24556 -10.13094,-5.80288 -0.89733,-0.17002 -2.3815,-0.45902 -3.29816,-0.64223 -7.40758,-1.48046 -9.11111,-1.58994 -9.11111,-0.58552 0,0.49287 0.375,0.89613 0.83333,0.89613 0.45833,0 0.93694,0.31082 1.06357,0.69072 0.12664,0.3799 3.01434,0.97877 6.41712,1.33082 6.22621,0.64415 8.04683,1.27134 12.53839,4.3194 3.10656,2.10817 3.31757,2.08236 1.6878,-0.20644 z m -48.72316,-2.83028 c 2.49463,-1.84935 4.63132,-3.6024 4.74821,-3.89567 0.91957,-2.30728 17.69261,-12.74189 20.48185,-12.74189 1.30178,0 0.77332,-0.97479 -1.09561,-2.02093 -1.77635,-0.99432 -1.95442,-0.92891 -6.83214,2.5096 -15.80248,11.13981 -25.30415,19.51133 -22.14535,19.51133 0.16904,0 2.34841,-1.5131 4.84304,-3.36244 z m -12.29172,-3.92498 c 2.38438,-1.15201 7.03675,-5.5065 8.64691,-8.09328 1.24011,-1.99228 9.37623,-8.49723 12.2722,-9.81181 l 3,-1.36181 -3.83333,-0.0562 c -3.06827,-0.045 -3.83334,0.15344 -3.83334,0.99409 0,1.14593 -6.90701,8.02204 -13.30092,13.2414 -2.21783,1.81042 -4.032409,3.57735 -4.032409,3.92651 0,0.34916 -0.525,1.03337 -1.166667,1.52046 -1.663232,1.26258 -0.835619,1.13024 2.247556,-0.35939 z m 59.49215,-1.4656 c -0.34021,-1.51417 -0.91197,-3.30126 -1.27057,-3.97131 -0.6445,-1.20426 -4.53899,-2.36603 -6.80643,-2.03044 -0.64385,0.0953 -2.04016,-0.4459 -3.10291,-1.20265 -1.06276,-0.75675 -2.31468,-1.37591 -2.78205,-1.37591 -0.46736,0 -1.78246,-0.33727 -2.92245,-0.7495 -1.79145,-0.64779 -2.52157,-0.51925 -5.38067,0.94733 -4.74812,2.43557 -8.06756,5.02773 -6.91182,5.39746 0.51546,0.1649 4.09862,0.47612 7.96258,0.69161 3.86396,0.21549 8.06198,0.6891 9.32893,1.05245 1.26695,0.36336 3.05553,0.66451 3.97461,0.66923 1.26702,0.007 5.41798,1.61706 8.43354,3.27217 0.0527,0.0289 -0.18255,-1.18628 -0.52276,-2.70044 z m -48.10502,-1.91812 c 0.29259,-0.002 2.23731,-1.75018 4.3216,-3.88382 3.31837,-3.39693 5.58259,-4.90679 13.74147,-9.16326 l 1.80224,-0.94023 -1.85989,-0.004 c -2.04506,-0.005 -6.32827,1.98314 -9.53637,4.42542 -1.13461,0.86376 -2.39961,1.57048 -2.81111,1.57048 -1.07303,0 -5.45929,4.53425 -5.45929,5.64349 0,0.51281 -0.9,1.57324 -2,2.35651 -1.1,0.78327 -1.99052,1.9287 -1.97894,2.54539 0.0162,0.86217 0.39395,0.69762 1.63469,-0.71206 0.8875,-1.00833 1.85302,-1.83535 2.1456,-1.83781 z m -15.134686,-0.66756 c 0,-0.29116 1.834129,-2.37494 4.075846,-4.63061 2.24171,-2.25567 3.92742,-4.24964 3.74603,-4.43103 -0.1814,-0.1814 -0.7941,0.13447 -1.36156,0.70193 -0.56746,0.56746 -1.49547,1.03175 -2.06224,1.03175 -0.56678,0 -1.530066,0.975 -2.140644,2.16666 -0.610578,1.19167 -1.300211,2.31667 -1.532519,2.5 -0.232307,0.18334 -0.941445,1.1493 -1.575861,2.1466 -0.948336,1.49077 -0.975239,1.74486 -0.151268,1.42867 0.551219,-0.21152 1.002216,-0.62281 1.002216,-0.91397 z m 4.885586,-13.82796 c 1.37178,-1.19167 2.09167,-2.16667 1.59976,-2.16667 -0.97137,0 -7.831078,6.82648 -7.799137,7.76136 0.01075,0.31458 0.848823,-0.32803 1.862389,-1.42803 1.013565,-1.1 2.965208,-2.975 4.336988,-4.16666 z M 136,176.07805 c 0,-0.87404 -7.33247,-4.18516 -8.58635,-3.87733 -0.6959,0.17084 -0.13142,0.66306 1.58635,1.38326 1.46666,0.61492 3.41666,1.5521 4.33333,2.08262 1.93713,1.12113 2.66667,1.23369 2.66667,0.41145 z"
       id="path1" />
  </g>
</svg>
